<svg height="38" viewBox="0 0 35 38" width="35" xmlns="http://www.w3.org/2000/svg"><path d="m22.5771159 23.6720665c0-.252064-.2023454-.4564023-.4519511-.4564023s-.4519511.2043383-.4519511.4564023c0 .9578433-.7689126 1.7343288-1.7174143 1.7343288h-2.5007962v-2.5752743c.7473349-.1886667 1.7174143-.6898847 1.7174143-1.288932 0-.7642085-1.0215334-1.3692069-2.2597556-1.3692069s-2.2597556.6049984-2.2597556 1.3692069c0 .6570293 1.0983114 1.1963748 1.8981947 1.3347363v2.52947h-2.5007962c-.9485017 0-1.7174142-.7764855-1.7174142-1.7343288 0-.252064-.2023454-.4564023-.4519512-.4564023-.2496057 0-.4519511.2043383-.4519511.4564023 0 1.3002151.9282694 2.381486 2.1520655 2.6048382.0224152.1723801.0542019.4057447.095413.7005424.0981057.7017863.2498768 1.7535191.4553646 3.1555777.0757818.5171215.5120502.9022367 1.0296698.9089382l1.6355714.0211754c.1001206.0012962.1743504-.0018699.2307972-.0140028.0388579.0115777.0798834.0180251.1223002.0185743l1.6748066.0217721c.5255835.0067158.9758834-.3783773 1.0558088-.9030084l.5971638-3.9197936c1.1975477-.2444423 2.0991667-1.3131987 2.0991667-2.5946135zm-1.6002431-16.30516711 10.5727965 6.09804071c1.4606688.8424656 2.2860616 2.480777 2.1004151 4.1690861l-1.1115565 10.1087287c-.1545245 1.4052787-.9894651 2.6415506-2.2285973 3.2998183l-11.4936841 6.1058221c-1.2293671.6530801-2.6983224.6530801-3.9276895 0l-11.49368411-6.1058221c-1.2391322-.6582677-2.0740728-1.8945396-2.22859734-3.2998183l-1.11155643-10.1087287c-.18564657-1.6883091.6397463-3.3266205 2.10041504-4.1690861l11.63413734-6.71018711-1.3150812-3.97138397 2.2750787 1.25870328-1.2132399-3.97787354 3.2029862 3.34382271-.4511694-2.32040441zm-12.7115423 10.24621111c0 .5166819.20086716.9644728.53564577 1.3089274s.76999079.5511273 1.27215873.5511273c.2008671 0 .3682564-.0344454.5356457-.0688909.736513-.2411182 1.2721587-.9300273 1.2721587-1.7567183 0-.9989183-.8034686-1.8256092-1.7743266-1.8256092-.43521215 0-.83694648.1722272-1.13824723.4133454-.46869005.2755637-.70303507.7922456-.70303507 1.3778183zm13.2572328 0c0 .5166819.2008672.9644728.5356458 1.3089274s.7699908.5511273 1.2721587.5511273c.2008671 0 .3682564-.0344454.5356457-.0688909.736513-.2411182 1.2721587-.9300273 1.2721587-1.7567183 0-.9989183-.8034686-1.8256092-1.7743266-1.8256092-.4352122 0-.8369465.1722272-1.1382472.4133454-.4686901.2755637-.7030351.7922456-.7030351 1.3778183zm10.2743554-5.5032359s.2410406-.4868291 0-1.0345119c-.3916909-.8823778-1.0846827-2.46457245-1.7776744-2.89054794-.7532518-.42597549-2.7719668-.27384138-3.7059991-.18256092-.0602602 0-.5724715.12170728-.6628617.30426821-.0602601.1521341-.6929917 1.21707282-.6929917 1.21707282l.6026015.33469503 5.664454 3.2556698zm-7.2469203-4.30236492.0224188-.04527915c.3158343-.63788982 1.1069261-.94835399 1.6633622-.97514693 2.0210957-.19563659 3.4517512-.18477429 4.3723312.3358278l.0377753.02228151c.6391373.39287168 1.1304477 1.10802789 1.6703337 2.18227986.1877274.37353524.3075981.63535661.5820275 1.25358983.2631859.5980004.2631859 1.1919018.1089146 1.7241868-.0415622.1434026-.0883216.2601409-.1322767.3489167l-.0158387.0319895-1.1885106 2.0845859-1.0422356-.5990295-5.6491167-3.2470035-1.6990654-.94368961.6438208-1.08360282c.0210885-.03549374.0584995-.0986844.106739-.18055193.0803829-.13641841.1607218-.2736636.2353997-.40249471.0065402-.01128526.0065402-.01128526.0130719-.02256549.0815942-.1409436.1504407-.26159918.20201-.35433938.0266626-.04794902.0477869-.0867977.0621277-.11416207.0018459-.00352221.0018633-.00355357-.0112316.0295062zm-15.77245663 1.65523155c-.1205203-.21298774-.60260149-1.0345119-.66286164-1.15621918-.09039023-.21298775-.60260149-.30426821-.66286164-.30426821-.96416239-.09128046-2.95274731-.24341457-3.70599917.18256092-.69299172.39554867-1.38598343 2.00817014-1.7776744 2.89054794-.2410406.5476828 0 1.0345119 0 1.0345119l.57247142.9736583zm8.68845093 16.87380387c1.080222.0069275 1.6696395.0104413 2.0849467.0120082l-.5635454 3.6991218c-.0114179.0749473-.0757465.1299606-.1508299.1290012l-1.243387-.0161105zm-2.9673126-.0165186c.4912373.0014547 1.1296207.0048742 2.0443278.010611-.0449881 1.3707322-.0831355 2.4100208-.1144133 3.1173134-.012742.2881376-.0243255.5207018-.0346998.697088l-1.220806-.0158055c-.0739463-.0009574-.1362689-.0559726-.1470946-.1298452-.2052181-1.4002188-.3567348-2.4501887-.4544998-3.1495375-.0290451-.2077705-.0533229-.3844326-.0728143-.5298242zm-6.97937641-19.53377184c.59716571.01888721 1.35032873.28916852 1.67803811.9847605.02525476.04603895.13977243.24621421.29644146.51662618l.00306648.00529259c.0300596.05187954.15874807.27374985.18944163.32674422.06704599.11575912.10969407.18980415.13765962.23922586l.59639701 1.05397399-8.30932393 4.8239042-1.20138953-2.0433209-.01945594-.0392952c-.04395503-.0887758-.09071447-.2055141-.13227664-.3489167-.15427133-.532285-.15427133-1.1261864.110484-1.7277375.32074215-.72254858.39181063-.87900988.57473216-1.24664209.55113438-1.1076594 1.04450066-1.825924 1.71383496-2.20795841.91975982-.5201383 2.28723728-.53113421 4.36235061-.33665674z" fill="#fff" transform="translate(.775335 -.091703)"/></svg>