<svg height="32" viewBox="0 0 106 32" width="106" xmlns="http://www.w3.org/2000/svg"><path d="m50.4928 21.568c-.5376028.7296036-1.2351957 1.3215977-2.0928 1.776s-1.887994.6816-3.0912.6816c-1.0368051 0-1.9935955-.1759983-2.8704-.528s-1.6319968-.8447968-2.2656-1.4784-1.1295983-1.3887956-1.488-2.2656-.5376-1.8399948-.5376-2.8896c0-1.0624053.1823981-2.0319956.5472-2.9088s.8703968-1.6255969 1.5168-2.2464 1.4111955-1.1039983 2.2944-1.4496c.8832045-.34560173 1.8431949-.5184 2.88-.5184.4608023 0 .9279977.04479955 1.4016.1344s.9279979.2239991 1.3632.4032.8319983.3999987 1.1904.6624.6655987.5663983.9216.912l-1.4976 1.152c-.3328017-.4608023-.803197-.8415985-1.4112-1.1424s-1.2639964-.4512-1.968-.4512c-.7936041 0-1.5071968.1439986-2.1408.432s-1.1743979.6815975-1.6224 1.1808c-.4480023.4992025-.7935987 1.0783967-1.0368 1.7376s-.3648 1.3599963-.3648 2.1024c0 .7680038.1183987 1.4847967.3552 2.1504s.5759979 1.2447975 1.0176 1.7376.9791968.8799985 1.6128 1.1616 1.3407962.4224 2.1216.4224c.7680038 0 1.4655968-.1535985 2.0928-.4608s1.1455979-.7551971 1.5552-1.344zm1.8432-5.0304c0-.2432012-.0064-.5567981-.0192-.9408s-.0319998-.7231985-.0576-1.0176h1.7088c.0256002.2304012.0448.4959985.0576.7968s.0192.547199.0192.7392h.0576c.2560013-.5376027.6303974-.9695984 1.1232-1.296s1.046397-.4896 1.6608-.4896c.2816015 0 .5183989.0255997.7104.0768l-.0768 1.6704c-.2560013-.0640003-.5311985-.096-.8256-.096-.4352 0-.8127985.0799992-1.1328.24s-.5855989.3743987-.7968.6432-.3679996.5791983-.4704.9312c-.1024004.3520018-.1536.7199981-.1536 1.104v4.7808h-1.8048zm8.7744 7.1424h-1.8048v-9.1008h1.8048zm.3072-12.384c0 .3328017-.1183987.6079989-.3552.8256s-.5215983.3264-.8544.3264-.6143989-.1119989-.8448-.336-.3456-.4959984-.3456-.816c0-.3328017.1151989-.6111989.3456-.8352s.5119983-.336.8448-.336.6175987.1119989.8544.336.3552.5023983.3552.8352zm12.0576 7.8144c0 .7040035-.1247987 1.3503971-.3744 1.9392-.2496013.588803-.5951979 1.0975979-1.0368 1.5264s-.963197.7615987-1.5648.9984-1.2479966.3552-1.9392.3552-1.337597-.1183987-1.9392-.3552-1.1199979-.5695979-1.5552-.9984-.7775987-.937597-1.0272-1.5264c-.2496013-.5888029-.3744-1.2351965-.3744-1.9392s.1247987-1.3471971.3744-1.9296.5919979-1.0847979 1.0272-1.5072.953597-.7519988 1.5552-.9888 1.2479966-.3552 1.9392-.3552 1.337597.1183988 1.9392.3552 1.1231979.5663979 1.5648.9888.7871987.9247971 1.0368 1.5072.3744 1.2255965.3744 1.9296zm-1.8816 0c0-.4352022-.0672-.851198-.2016-1.248-.1344006-.396802-.3295987-.7455985-.5856-1.0464s-.5727981-.5407991-.9504-.72-.8095977-.2688-1.296-.2688-.9183981.0895991-1.296.2688-.6943987.4191985-.9504.72-.4511994.649598-.5856 1.0464-.2016.8127978-.2016 1.248.0671994.851198.2016 1.248.3295987.7487985.5856 1.056.5727981.5503991.9504.7296.8095977.2688 1.296.2688.9183981-.0895991 1.296-.2688.6943987-.4223985.9504-.7296.4511994-.659198.5856-1.056c.1344-.396802.2016-.8127978.2016-1.248zm6.3744 3.4176c0 .3328017-.1215987.6271987-.3648.8832s-.5503981.384-.9216.384c-.3584017 0-.6623987-.1247987-.912-.3744s-.3744-.5408-.3744-.8736c0-.3456017.1215987-.6431987.3648-.8928s.5503981-.3744.9216-.3744.6783987.1215987.9216.3648.3648.5375983.3648.8832zm15.3024-5.6832c0 1.190406-.2207979 2.2175957-.6624 3.0816s-1.0239964 1.5743972-1.7472 2.1312-1.5391955.9663987-2.448 1.2288-1.8303953.3936-2.7648.3936h-5.0688v-13.5936h4.9152c.9600047 0 1.9071953.1119989 2.8416.336s1.7663964.5951974 2.496 1.1136 1.3183979 1.2127956 1.7664 2.0832c.4480023.8704044.672 1.9455936.672 3.2256zm-3.4176 0c0-.7680038-.1247987-1.4047975-.3744-1.9104s-.5823979-.9087985-.9984-1.2096-.8895974-.5151994-1.4208-.6432-1.0783972-.192-1.6416-.192h-1.632v7.9488h1.5552c.588803 0 1.1551972-.0671993 1.6992-.2016s1.0239979-.3551985 1.44-.6624.7487987-.7167974.9984-1.2288.3744-1.1455962.3744-1.9008zm15.552 2.016c0 .7808039-.140799 1.4879968-.4224 2.1216s-.665598 1.1711979-1.152 1.6128-1.049597.7839987-1.6896 1.0272-1.324796.3648-2.0544.3648c-.7168036 0-1.3983968-.1215987-2.0448-.3648s-1.2095977-.5855979-1.6896-1.0272-.8607985-.9791968-1.1424-1.6128-.4224-1.3407961-.4224-2.1216.1407985-1.4847969.4224-2.112.6623977-1.1583978 1.1424-1.5936 1.0431968-.7679988 1.6896-.9984 1.3279964-.3456 2.0448-.3456c.729604 0 1.414397.1151988 2.0544.3456s1.203198.5631978 1.6896.9984.870399.9663969 1.152 1.5936.4224 1.3311961.4224 2.112zm-3.0336 0c0-.3072015-.0512-.6079985-.1536-.9024s-.249599-.5535989-.4416-.7776-.428799-.4063993-.7104-.5472-.607998-.2112-.9792-.2112c-.3712019 0-.6975985.0703993-.9792.2112s-.5151991.3231989-.7008.5472-.3263996.4831985-.4224.7776-.144.5951985-.144.9024.0479996.6079985.144.9024.2399991.5599988.432.7968c.1920011.2368012.4287985.4255993.7104.5664s.6079981.2112.9792.2112c.371202 0 .697599-.0703993.9792-.2112s.518399-.3295988.7104-.5664.336-.5023985.432-.7968.144-.5951985.144-.9024z" fill="#fff" transform="translate(-30)"/></svg>