<svg width="1756" height="2788" viewBox="0 0 1756 2788" fill="none" xmlns="http://www.w3.org/2000/svg">
<ellipse cx="689.136" cy="2678.97" rx="688.958" ry="108.879" fill="#F3F3F3"/>
<path d="M359.914 1826.85C359.914 1826.85 243.483 1955.21 167.884 2103.98C94.2052 2249.11 91.173 2394.25 285.224 2358.37C479.276 2322.49 359.914 1826.85 359.914 1826.85Z" fill="#81E9DD" stroke="#0A0A0A" stroke-width="7.58013" stroke-miterlimit="10"/>
<g style="mix-blend-mode:multiply" opacity="0.36">
<path d="M359.915 1826.85C359.915 1826.85 334.951 1854.44 300.588 1898.71C300.083 1942.57 295.636 1986.54 290.077 2028.38C274.007 2150.87 230.042 2249.01 156.566 2344.02C182.54 2362.92 224.08 2369.59 285.125 2358.37C479.277 2322.49 359.814 1826.85 359.814 1826.85H359.915Z" fill="#5AD8C5"/>
</g>
<path d="M316.961 1800.99C316.961 1800.99 296.04 2263.98 224.18 2525.85C224.18 2525.85 127.256 2654.71 187.796 2709.8C196.488 2717.68 208.009 2721.82 219.834 2721.82H499.49C499.49 2721.82 538.402 2729.3 541.333 2600.64C544.264 2471.98 713.352 2103.89 713.352 2103.89C713.352 2103.89 788.142 2405.68 799.664 2517.97C799.664 2517.97 810.984 2590.43 785.413 2632.98C759.843 2675.53 789.658 2716.77 829.479 2711.82H1166.04C1166.04 2711.82 1222.84 2706.86 1222.13 2667.75C1221.42 2628.64 1212.23 2608.83 1110.65 2552.03C1110.65 2552.03 1090.03 2073.47 1097.11 1836.66C1104.18 1599.86 325.956 1657.87 316.86 1800.99H316.961Z" fill="#81E9DD" stroke="#0A0A0A" stroke-width="7.58013" stroke-miterlimit="10"/>
<path d="M1060.02 1974.62C1055.77 1909.03 1062.95 1834.95 1024.44 1781.68C1005.74 1755.81 992.097 1854.25 995.23 1930.05C999.677 2036.07 1025.85 2132.9 1051.63 2235.28C1053.04 2240.84 1065.98 2067.1 1060.02 1974.62Z" fill="#BBF9F0"/>
<g style="mix-blend-mode:multiply" opacity="0.36">
<path d="M987.552 2592.94C987.552 2590.62 987.552 2588.6 987.552 2586.88C987.35 2586.17 987.248 2585.67 987.046 2584.86C981.285 2560.9 976.131 2537.15 968.551 2513.6C967.136 2509.36 955.008 2476.41 951.773 2467.11C941.667 2443.46 931.661 2419.71 921.655 2395.96C860.104 2248.2 842.923 2090.23 838.88 1931.75C826.247 1947.72 812.804 1963.39 798.25 1978.65C758.733 2020.49 707.592 2041.92 654.935 2045.66C647.254 2122.77 626.94 2197.76 579.235 2268.61C519.403 2357.55 382.759 2345.73 350.215 2238.7C317.772 2132.07 357.087 2026.66 374.572 1921.14C383.87 1864.85 392.057 1796.02 381.04 1736.29C342.432 1754.68 318.377 1776.61 316.861 1801.07C316.861 1801.07 297.153 2236.88 230.347 2501.98C231.661 2501.98 233.076 2501.88 234.39 2501.88C361.13 2501.88 456.235 2601.23 468.97 2721.91H499.391C499.391 2721.91 538.302 2729.38 541.233 2600.72C544.266 2472.06 713.252 2103.97 713.252 2103.97C713.252 2103.97 788.043 2405.76 799.564 2518.05C799.564 2518.05 810.884 2590.52 785.314 2633.07C759.744 2675.72 789.559 2716.85 829.38 2711.9H985.429C988.461 2672.08 987.35 2632.86 987.35 2592.94H987.552Z" fill="#5AD8C5"/>
</g>
<path d="M713.454 2103.96L746.301 2018.25" stroke="#0A0A0A" stroke-width="7.58013" stroke-miterlimit="10"/>
<path d="M664.435 2048.8C664.435 2048.8 783.493 2030.21 832.613 1933.48L664.435 2048.8Z" fill="#81E9DD"/>
<path d="M664.435 2048.8C664.435 2048.8 783.493 2030.21 832.613 1933.48" stroke="#0A0A0A" stroke-width="7.58013" stroke-miterlimit="10"/>
<path d="M1073.05 2591.74C1073.05 2591.74 1171.49 2635.2 1130.97 2711.81L1073.05 2591.74Z" fill="#81E9DD"/>
<path d="M1073.05 2591.74C1073.05 2591.74 1171.49 2635.2 1130.97 2711.81" stroke="#0A0A0A" stroke-width="7.58013" stroke-miterlimit="10"/>
<path d="M949.649 2616.8C949.649 2616.8 1021 2642.88 1017.16 2711.81L949.649 2616.8Z" fill="#81E9DD"/>
<path d="M949.649 2616.8C949.649 2616.8 1021 2642.88 1017.16 2711.81" stroke="#0A0A0A" stroke-width="7.58013" stroke-miterlimit="10"/>
<path d="M434.301 2616.8C434.301 2616.8 374.671 2664.81 386.294 2721.81L434.301 2616.8Z" fill="#81E9DD"/>
<path d="M434.301 2616.8C434.301 2616.8 374.671 2664.81 386.294 2721.81" stroke="#0A0A0A" stroke-width="7.58013" stroke-miterlimit="10"/>
<path d="M312.92 2616.8C312.92 2616.8 257.13 2634.09 258.04 2721.92L312.92 2616.8Z" fill="#81E9DD"/>
<path d="M312.92 2616.8C312.92 2616.8 257.13 2634.09 258.04 2721.92" stroke="#0A0A0A" stroke-width="7.58013" stroke-miterlimit="10"/>
<path d="M1437.41 1012.01C1437.41 1012.01 1437.41 973.5 1459.84 927.312C1459.84 927.312 1451.46 844.638 1475.61 830.084C1499.77 815.53 1530.69 831.297 1541.71 878.091C1543.93 887.39 1544.54 896.991 1544.54 906.593V921.045C1544.54 921.045 1590.22 911.444 1627.62 830.084C1627.62 830.084 1649.25 794.407 1674.92 843.425C1674.92 843.425 1706.45 825.94 1718.07 869.197C1718.07 869.197 1751.33 857.069 1752.13 913.364C1752.94 969.659 1725.55 1070.22 1608.42 1100.14C1608.42 1100.14 1576.88 1112.57 1569.4 1129.25C1561.92 1145.92 1436.5 1095.99 1437.31 1012.11L1437.41 1012.01Z" fill="#81E9DD" stroke="#0A0A0A" stroke-width="7.58013" stroke-miterlimit="10"/>
<path d="M1544.64 921.065L1538.78 957.147C1538.78 957.147 1564.55 977.361 1556.26 1022.94" fill="#81E9DD"/>
<path d="M1544.64 921.065L1538.78 957.147C1538.78 957.147 1564.55 977.361 1556.26 1022.94" stroke="#0A0A0A" stroke-width="7.58013" stroke-miterlimit="10"/>
<path d="M1718.17 869.11C1718.17 869.11 1699.07 874.972 1695.74 904.787C1692.4 934.602 1655.01 987.057 1655.01 987.057" fill="#81E9DD"/>
<path d="M1718.17 869.11C1718.17 869.11 1699.07 874.972 1695.74 904.787C1692.4 934.602 1655.01 987.057 1655.01 987.057" stroke="#0A0A0A" stroke-width="7.58013" stroke-miterlimit="10"/>
<path d="M1677.44 842.852C1677.44 842.852 1660.77 849.017 1655.01 878.529C1645.3 928.052 1598.81 953.218 1598.81 953.218" fill="#81E9DD"/>
<path d="M1677.44 842.852C1677.44 842.852 1660.77 849.017 1655.01 878.529C1645.3 928.052 1598.81 953.218 1598.81 953.218" stroke="#0A0A0A" stroke-width="7.58013" stroke-miterlimit="10"/>
<path d="M246.012 1651.09L344.856 1563.36L308.573 1824.52C308.573 1824.52 230.649 1869.4 180.62 1795.92C130.591 1722.44 220.441 1700.71 220.441 1700.71C220.441 1700.71 220.442 1699.6 220.745 1697.78C223.17 1679.69 232.368 1663.32 246.012 1651.19V1651.09Z" fill="#81E9DD" stroke="#0A0A0A" stroke-width="7.58013" stroke-miterlimit="10"/>
<path d="M220.441 1700.71C220.441 1700.71 214.377 1735.88 225.393 1757L220.441 1700.71Z" fill="#81E9DD"/>
<path d="M220.441 1700.71C220.441 1700.71 214.377 1735.88 225.393 1757" stroke="#0A0A0A" stroke-width="7.58013" stroke-miterlimit="10"/>
<path d="M283.003 1084.1C283.003 1084.1 156.667 824.858 371.235 828.8C585.803 832.742 537.089 1022.95 537.089 1022.95L283.003 1084.1Z" fill="#FFE400" stroke="black" stroke-width="7.58013" stroke-miterlimit="10"/>
<g style="mix-blend-mode:multiply" opacity="0.25">
<path d="M371.234 828.798C365.877 828.798 360.925 828.798 356.073 829.102C364.462 893.987 328.583 965.645 248.638 972.417C256.925 1030.53 283.001 1084.1 283.001 1084.1L537.087 1022.95C537.087 1022.95 585.802 832.74 371.234 828.798Z" fill="#D6B800"/>
</g>
<path d="M1564.65 1113.01C1534.53 1000.42 1431.95 1008.81 1431.95 1008.81C1360.29 1027.71 1222.33 1152.63 1222.33 1152.63L1112.88 1055.51C994.928 929.979 914.781 944.129 914.781 944.129C914.781 944.129 602.884 943.522 470.282 943.724C337.58 943.825 129.985 1160.21 63.9873 1296.96C-2.01043 1433.7 233.782 1662.02 233.782 1662.02C301.296 1642.81 325.653 1572.27 327.068 1567.82C293.21 1697.8 314.839 1715.79 314.839 1715.79C314.839 1715.79 282.8 1747.82 299.779 1815.74C316.759 1883.66 509.194 1867.59 509.194 1867.59C519.604 1869.51 768.636 1861.93 840.294 1849.7C911.951 1837.47 1000.59 1858.19 1067.6 1843.13C1134.6 1827.97 1097.82 1716.7 1097.82 1716.7C1110.95 1638.37 1092.16 1596.93 1092.16 1596.93C1096.81 1579.95 1078.92 1530.83 1055.37 1483.73C1031.72 1436.53 1014.74 1313.03 1014.74 1313.03C1014.74 1313.03 1103.48 1380.95 1169.47 1411.06C1235.47 1441.28 1257.2 1413.89 1317.54 1386.61C1377.98 1359.22 1475.1 1261.08 1526.95 1210.14C1578.8 1159.2 1564.65 1113.01 1564.65 1113.01ZM353.851 1487.27C353.851 1487.27 339.601 1419.96 307.663 1387.21C307.663 1387.21 363.15 1382.16 384.172 1346.89C384.172 1346.89 382.454 1420.87 353.851 1487.27Z" fill="#FFE400" stroke="black" stroke-width="7.58013" stroke-miterlimit="10"/>
<g style="mix-blend-mode:multiply" opacity="0.25">
<path d="M1349.27 1325.56C1244.16 1323.43 1132.08 1282.91 1057.59 1207C1002.41 1150.81 978.958 1074.6 956.824 1000.42C965.515 1056.71 964.707 1114.83 974.814 1167.08C984.618 1217.92 1001.29 1265.12 1015.14 1313.43C1019.39 1316.66 1105.09 1381.75 1169.47 1411.16C1235.47 1441.38 1257.2 1413.99 1317.54 1386.7C1343.01 1375.18 1375.04 1350.92 1407.39 1323.13C1388.28 1325.15 1368.88 1326.06 1349.27 1325.66V1325.56Z" fill="#D6B800"/>
</g>
<g style="mix-blend-mode:multiply" opacity="0.25">
<path d="M424.094 1566.29C446.733 1490.29 490.395 1429.64 540.019 1372.84C495.145 1336.56 470.586 1283.5 470.282 1222.96C469.777 1112.59 535.977 1028.5 596.921 943.607C548.509 943.607 503.736 943.607 470.282 943.607C337.58 943.708 129.985 1160.1 63.9873 1296.84C-2.01043 1433.59 233.782 1661.9 233.782 1661.9C301.296 1642.7 325.653 1572.15 327.068 1567.7C293.21 1697.68 314.839 1715.67 314.839 1715.67C314.839 1715.67 282.8 1747.71 299.779 1815.63C310.189 1857.27 386.598 1867.37 444.105 1868.89C397.917 1778.03 396.401 1658.97 424.094 1566.19V1566.29ZM353.851 1487.25C353.851 1487.25 339.601 1419.94 307.663 1387.2C307.663 1387.2 363.15 1382.14 384.172 1346.87C384.172 1346.87 382.454 1420.85 353.851 1487.25Z" fill="#D6B800"/>
</g>
<g style="mix-blend-mode:multiply" opacity="0.25">
<path d="M478.671 1742.34C505.151 1751.23 726.592 1745.27 726.592 1745.27C825.437 1755.38 1043.34 1727.48 1043.34 1727.48" stroke="#AB8F00" stroke-width="10.1068" stroke-miterlimit="10"/>
</g>
<path d="M944.292 978.589C944.292 978.589 972.895 1073.29 971.379 1142.42C971.379 1142.42 1005.24 1255.62 1014.74 1313.13" fill="#FFE400"/>
<path d="M944.292 978.589C944.292 978.589 972.895 1073.29 971.379 1142.42C971.379 1142.42 1005.24 1255.62 1014.74 1313.13" stroke="black" stroke-width="7.58013" stroke-miterlimit="10"/>
<path d="M1222.33 1152.62L1264.68 1196.38" stroke="black" stroke-width="7.58013" stroke-miterlimit="10"/>
<path d="M384.173 1346.87C384.173 1346.87 382.555 1226.6 414.897 1152.62L384.173 1346.87Z" fill="#FFE400"/>
<path d="M384.173 1346.87C384.173 1346.87 382.555 1226.6 414.897 1152.62" stroke="black" stroke-width="7.58013" stroke-miterlimit="10"/>
<path d="M179.507 1302.4C179.507 1302.4 248.032 1307.55 283.001 1364.45L179.507 1302.4Z" fill="#FFE400"/>
<path d="M179.507 1302.4C179.507 1302.4 248.032 1307.55 283.001 1364.45" stroke="black" stroke-width="7.58013" stroke-miterlimit="10"/>
<path d="M327.068 1567.8L353.851 1487.24" stroke="black" stroke-width="7.58013" stroke-miterlimit="10"/>
<path d="M794.207 1002.21C794.207 1002.21 804.314 1226.38 850.3 1243.26C880.216 1254.28 888.1 1232.75 890.02 1216.38C890.93 1208.69 890.424 1200.91 889.11 1193.33L853.433 986.445" fill="white"/>
<path d="M794.207 1002.21C794.207 1002.21 804.314 1226.38 850.3 1243.26C880.216 1254.28 888.1 1232.75 890.02 1216.38C890.93 1208.69 890.424 1200.91 889.11 1193.33L853.433 986.445" stroke="black" stroke-width="7.58013" stroke-miterlimit="10"/>
<g style="mix-blend-mode:multiply">
<path d="M804.111 1090.66C803.403 1091.06 802.595 1091.37 801.888 1091.77C796.127 1043.36 794.307 1002.22 794.307 1002.22L853.533 986.559L859.092 1018.7C837.362 1039.62 818.867 1063.88 804.212 1090.66H804.111Z" fill="#B3E4EA"/>
</g>
<path d="M693.339 1010.8C693.339 1010.8 689.094 1147.34 668.375 1212.13C663.827 1226.28 658.875 1241.44 645.231 1247.3C631.587 1253.16 612.08 1250.03 609.958 1222.24C605.308 1161.7 628.554 983.007 628.554 983.007" fill="white"/>
<path d="M693.339 1010.8C693.339 1010.8 689.094 1147.34 668.375 1212.13C663.827 1226.28 658.875 1241.44 645.231 1247.3C631.587 1253.16 612.08 1250.03 609.958 1222.24C605.308 1161.7 628.554 983.007 628.554 983.007" stroke="black" stroke-width="7.58013" stroke-miterlimit="10"/>
<g style="mix-blend-mode:multiply">
<path d="M610.263 1169.58C614.205 1092.97 628.455 983.007 628.455 983.007L693.341 1010.8C693.341 1010.8 693.341 1012.92 693.139 1016.76C652.206 1057.6 623.2 1110.76 610.263 1169.58Z" fill="#B3E4EA"/>
</g>
<g clip-path="url(#clip0_6140_1388)">
<path d="M1146.43 566.795C1146.03 574.097 1145.93 581.498 1145.73 588.799C1141.03 783.335 1012.7 897.856 1012.7 897.856C930.889 971.77 821.468 1019.28 705.347 1019.28C676.342 1019.28 644.436 1011.88 612.93 1000.78C540.317 981.172 473.804 943.765 419.394 894.656C419.394 894.656 291.071 780.135 286.37 585.599C286.17 578.297 286.07 570.896 285.67 563.595C283.869 532.089 280.869 415.667 329.678 369.359C329.678 369.359 267.266 275.542 325.277 188.025C351.182 148.918 392.689 122.013 439.198 115.512C480.606 109.711 534.615 118.513 575.123 183.125L609.429 163.821C609.429 163.821 584.525 113.912 644.336 97.1087C644.336 97.1087 605.028 50.4 643.436 14.8935C681.743 -20.7131 722.85 40.0981 722.85 40.0981L822.669 167.022L856.975 186.325C932.689 65.7029 1055.21 139.617 1055.21 139.617C1192.64 236.834 1102.42 372.559 1102.42 372.559C1151.23 418.868 1148.23 535.289 1146.43 566.795Z" fill="#81E9DD" stroke="#0A0A0A" stroke-width="7.50138" stroke-miterlimit="10"/>
<g style="mix-blend-mode:multiply" opacity="0.36">
<path d="M1102.42 372.567C1102.42 372.567 1164.84 278.65 1106.72 191.033C1081.12 152.426 1040.21 125.621 994.304 118.92C953.696 112.919 900.586 120.721 859.979 181.832C869.481 192.534 878.882 203.336 887.884 214.438C961.198 304.654 1010.31 396.871 1017.71 515.793C1032.21 746.936 848.677 938.871 620.335 944.472C556.023 946.073 495.712 934.671 440.501 912.667C490.611 952.874 549.422 983.68 612.833 1000.78C644.339 1011.88 676.245 1019.29 705.25 1019.29C821.372 1019.29 930.792 971.777 1012.61 897.864C1012.61 897.864 1140.93 783.343 1145.63 588.807C1145.83 581.506 1145.93 574.104 1146.33 566.803C1148.13 535.297 1151.13 418.876 1102.32 372.567H1102.42Z" fill="#68D8C9"/>
</g>
<g style="mix-blend-mode:multiply" opacity="0.36">
<path d="M891.483 206.527C891.483 206.527 958.495 133.714 1034.71 191.725C1034.71 191.725 1106.62 233.732 1069.42 345.353" fill="#68D8C9"/>
<path d="M891.483 206.527C891.483 206.527 958.495 133.714 1034.71 191.725C1034.71 191.725 1106.62 233.732 1069.42 345.353" stroke="#0A0A0A" stroke-width="7.50138" stroke-miterlimit="10"/>
</g>
<path d="M644.24 97.1282L702.951 170.342" stroke="#0A0A0A" stroke-width="7.50138" stroke-miterlimit="10"/>
<path d="M609.429 163.817C609.429 163.817 620.731 187.522 680.842 206.525L609.429 163.817Z" fill="#81E9DD"/>
<path d="M609.429 163.817C609.429 163.817 620.731 187.522 680.842 206.525" stroke="#0A0A0A" stroke-width="7.50138" stroke-miterlimit="10"/>
<path d="M408.688 836.846C332.374 683.618 316.871 517.087 360.479 352.657C353.678 334.553 349.377 315.05 348.477 294.846C344.776 212.631 412.189 141.418 490.103 126.615C433.392 114.013 381.283 145.218 381.283 145.218C247.158 240.136 335.174 372.66 335.174 372.66C279.864 425.17 292.766 570.097 292.766 570.097C291.466 768.333 422.79 885.555 422.79 885.555C435.293 896.857 448.395 907.359 462.098 917.261C441.594 893.056 423.491 866.551 408.688 836.846Z" fill="#A8FAEF"/>
<g style="mix-blend-mode:multiply" opacity="0.36">
<path d="M535.919 206.527C535.919 206.527 468.906 133.714 392.692 191.725C392.692 191.725 320.779 233.732 357.986 345.353" fill="#68D8C9"/>
<path d="M535.919 206.527C535.919 206.527 468.906 133.714 392.692 191.725C392.692 191.725 320.779 233.732 357.986 345.353" stroke="#0A0A0A" stroke-width="7.50138" stroke-miterlimit="10"/>
</g>
<path d="M684.744 54.2041C735.953 82.2093 771.86 126.017 806.667 171.026C807.467 170.426 808.267 169.825 809.067 169.225L808.367 168.825L712.349 54.5042C712.349 54.5042 677.143 2.49459 644.337 32.9002C641.636 35.4007 639.636 37.9011 637.735 40.5016C654.138 41.9019 670.241 46.3027 684.644 54.2041H684.744Z" fill="#A8FAEF"/>
</g>
<path d="M808.051 823.045C808.051 823.045 796.63 893.894 782.582 904.304C782.582 904.304 745.692 914.714 735.181 910.571L726.792 835.578L782.582 803.337L808.051 823.146V823.045Z" fill="white" stroke="#9F9F9F" stroke-width="7.58013" stroke-miterlimit="10"/>
<path d="M779.754 814.031C779.754 814.031 781.876 869.517 761.056 906.71L779.754 814.031Z" fill="white"/>
<path d="M784.808 813.837C783.292 846.078 777.732 878.925 761.056 906.719C774.397 878.016 776.52 845.169 774.701 814.242L784.808 813.837Z" fill="#9F9F9F"/>
<path d="M740.943 705.398C740.943 705.398 640.077 698.93 646.747 792.418C652.508 873.071 751.252 863.368 786.221 821.829C786.221 821.829 838.777 841.638 860.81 791.306C882.843 740.974 849.996 707.217 825.032 701.052C800.068 694.887 749.231 704.387 741.044 705.398H740.943Z" fill="#BBF9F0" stroke="#659F97" stroke-width="7.58013" stroke-miterlimit="10"/>
<path d="M791.376 776.625C792.589 749.741 786.626 724.069 775.509 700.723C794.307 698.701 815.734 697.691 829.782 701.127C857.273 708 893.354 744.991 869.098 800.376C853.635 835.851 822.707 839.085 802.595 836.862C791.882 835.649 784.201 825.845 786.121 815.233C788.244 803.307 790.871 787.641 791.376 776.625Z" fill="#BBF9F0" stroke="#659F97" stroke-width="7.58013" stroke-miterlimit="10"/>
<path d="M813.813 678.586C823.516 680.102 829.175 690.512 825.436 699.507C819.877 712.848 807.749 730.03 781.37 737.105C750.241 745.493 733.766 721.237 726.287 704.661C722.649 696.576 726.692 687.076 734.979 684.044C749.735 678.687 776.215 672.724 813.712 678.586H813.813Z" fill="#0A0A0A"/>
<path d="M800.978 706.88C806.058 706.88 810.175 702.763 810.175 697.683C810.175 692.604 806.058 688.486 800.978 688.486C795.899 688.486 791.781 692.604 791.781 697.683C791.781 702.763 795.899 706.88 800.978 706.88Z" fill="white"/>
<path d="M571.229 365.24C571.229 365.24 496.088 365.24 465.888 433.829" stroke="black" stroke-width="10.2372" stroke-miterlimit="10"/>
<path d="M581.465 625.264C619.345 625.264 650.054 594.556 650.054 556.676C650.054 518.795 619.345 488.087 581.465 488.087C543.584 488.087 512.876 518.795 512.876 556.676C512.876 594.556 543.584 625.264 581.465 625.264Z" fill="white"/>
<path d="M650.464 556.681C651.59 593.944 620.366 630.388 581.465 628.443C520.963 627.214 486.976 548.695 530.382 505.597C575.22 459.12 651.999 493.005 650.464 556.681ZM649.645 556.681C649.849 499.762 574.606 470.995 535.5 510.716C492.811 551.357 521.271 624.962 581.465 622.096C616.271 621.686 650.156 593.125 649.645 556.681Z" fill="black"/>
<path d="M607.161 597.627C630.85 597.627 650.054 578.423 650.054 554.733C650.054 531.044 630.85 511.84 607.161 511.84C583.471 511.84 564.267 531.044 564.267 554.733C564.267 578.423 583.471 597.627 607.161 597.627Z" fill="black"/>
<path d="M581.468 575.084C591.645 575.084 599.895 566.834 599.895 556.657C599.895 546.48 591.645 538.23 581.468 538.23C571.291 538.23 563.041 546.48 563.041 556.657C563.041 566.834 571.291 575.084 581.468 575.084Z" fill="white"/>
<path d="M947.956 355.001C947.956 355.001 1023.1 355.001 1053.3 423.59" stroke="black" stroke-width="10.2372" stroke-miterlimit="10"/>
<path d="M922.259 631.304C960.14 631.304 990.848 600.596 990.848 562.716C990.848 524.835 960.14 494.127 922.259 494.127C884.378 494.127 853.67 524.835 853.67 562.716C853.67 600.596 884.378 631.304 922.259 631.304Z" fill="white"/>
<path d="M991.154 562.717C992.28 599.98 961.057 636.424 922.155 634.479C861.654 633.251 827.667 554.732 871.072 511.633C915.911 465.157 992.69 499.042 991.154 562.717ZM990.335 562.717C990.54 505.798 915.297 477.032 876.191 516.752C833.502 557.393 861.961 630.998 922.155 628.132C956.962 627.722 990.847 599.161 990.335 562.717Z" fill="black"/>
<path d="M947.954 603.664C971.644 603.664 990.848 584.459 990.848 560.77C990.848 537.08 971.644 517.876 947.954 517.876C924.265 517.876 905.061 537.08 905.061 560.77C905.061 584.459 924.265 603.664 947.954 603.664Z" fill="black"/>
<path d="M923.387 575.084C933.564 575.084 941.815 566.834 941.815 556.657C941.815 546.48 933.564 538.23 923.387 538.23C913.211 538.23 904.961 546.48 904.961 556.657C904.961 566.834 913.211 575.084 923.387 575.084Z" fill="white"/>
<defs>
<clipPath id="clip0_6140_1388">
<rect width="869.86" height="1023.09" fill="white" transform="translate(281.069)"/>
</clipPath>
</defs>
</svg>
