<svg width="1805" height="2405" viewBox="0 0 1805 2405" fill="none" xmlns="http://www.w3.org/2000/svg">
<ellipse cx="902.409" cy="2276.45" rx="901.683" ry="128.551" fill="#F3F3F3"/>
<path d="M905.943 1119.07C1090.7 1119.07 1240.48 1033 1240.48 926.837C1240.48 820.67 1090.7 734.604 905.943 734.604C721.183 734.604 571.406 820.67 571.406 926.837C571.406 1033 721.183 1119.07 905.943 1119.07Z" fill="#FFE400" stroke="black" stroke-width="7.58013" stroke-miterlimit="10"/>
<path d="M655.293 938.535C655.293 938.535 531.282 940.455 391.707 1250.53C252.131 1560.61 382.004 1640.05 382.004 1640.05C382.004 1640.05 447.193 1698.17 491.158 1696.25C535.123 1694.32 1271.1 1710.29 1271.1 1710.29C1271.1 1710.29 1392.49 1695.44 1353.17 1586.48C1308.09 1461.77 1393.6 1198.18 1370.35 1155.63C1347.11 1113.08 1248.26 965.722 1143.66 946.317C1039.05 926.912 655.293 938.535 655.293 938.535Z" fill="#FFE400" stroke="black" stroke-width="7.58013" stroke-miterlimit="10"/>
<g style="mix-blend-mode:multiply" opacity="0.25">
<path d="M1370.35 1155.63C1347.11 1112.98 1248.26 965.722 1143.66 946.317C1039.05 926.912 655.292 938.535 655.292 938.535C655.292 938.535 645.994 938.737 629.722 945.206C633.663 957.031 639.02 969.664 640.233 981.085C640.435 981.59 640.536 981.894 640.637 982.298C643.063 987.452 645.488 992.708 648.116 997.761C659.133 1018.78 671.766 1038.9 685.512 1058.3C685.815 1058.3 696.932 1072.65 701.885 1078.21C711.284 1088.82 720.987 1099.23 730.891 1109.34C802.448 1182.01 881.584 1229.41 972.748 1273.68C1031.57 1302.28 1107.67 1341.6 1131.53 1406.89C1167 1456.21 1193.78 1512.81 1211.47 1572.84C1246.64 1465.81 1331.94 1394.56 1436.15 1347.46C1414.52 1258.32 1382.68 1178.27 1370.25 1155.43L1370.35 1155.63Z" fill="#D6B800"/>
</g>
<path d="M769.6 994.559C769.6 994.559 737.966 1216.71 780.111 1241.87C807.501 1258.25 819.225 1238.54 824.076 1222.87C826.3 1215.49 827.31 1207.81 827.411 1200.03L830.645 990.112" fill="white"/>
<path d="M769.6 994.559C769.6 994.559 737.966 1216.71 780.111 1241.87C807.501 1258.25 819.225 1238.54 824.076 1222.87C826.3 1215.49 827.31 1207.81 827.411 1200.03L830.645 990.112" stroke="black" stroke-width="7.58013" stroke-miterlimit="10"/>
<g style="mix-blend-mode:multiply">
<path d="M762.93 1083.3C762.121 1083.5 761.313 1083.7 760.504 1083.9C763.84 1035.29 769.601 994.559 769.601 994.559L830.646 990.112L830.141 1022.76C804.975 1039.33 782.234 1059.75 762.829 1083.3H762.93Z" fill="#B3E4EA"/>
</g>
<path d="M974.063 994.559C974.063 994.559 942.429 1216.71 984.574 1241.87C1011.96 1258.25 1023.69 1238.54 1028.54 1222.87C1030.76 1215.49 1031.77 1207.81 1031.87 1200.03L1035.11 990.112" fill="white"/>
<path d="M974.063 994.559C974.063 994.559 942.429 1216.71 984.574 1241.87C1011.96 1258.25 1023.69 1238.54 1028.54 1222.87C1030.76 1215.49 1031.77 1207.81 1031.87 1200.03L1035.11 990.112" stroke="black" stroke-width="7.58013" stroke-miterlimit="10"/>
<g style="mix-blend-mode:multiply">
<path d="M967.391 1083.3C966.582 1083.5 965.774 1083.7 964.965 1083.9C968.301 1035.29 974.061 994.559 974.061 994.559L1035.11 990.112L1034.6 1022.76C1009.43 1039.33 986.695 1059.75 967.29 1083.3H967.391Z" fill="#B3E4EA"/>
</g>
<path d="M646.197 1106.74C646.197 1106.74 594.35 1265.52 584.748 1334.35L646.197 1106.74Z" fill="#FFE400"/>
<path d="M646.197 1106.74C646.197 1106.74 594.35 1265.52 584.748 1334.35" stroke="black" stroke-width="7.58013" stroke-miterlimit="10"/>
<g opacity="0.61">
<path d="M1149.92 1037.1C1149.92 1037.1 1165.79 1136.04 1189.74 1198.4C1194.59 1211.14 1199.04 1223.97 1202.38 1237.21C1210.06 1268.04 1222.59 1320.79 1221.17 1334.34" fill="#FFE400"/>
<path d="M1149.92 1037.1C1149.92 1037.1 1165.79 1136.04 1189.74 1198.4C1194.59 1211.14 1199.04 1223.97 1202.38 1237.21C1210.06 1268.04 1222.59 1320.79 1221.17 1334.34" stroke="black" stroke-width="7.58013" stroke-miterlimit="10"/>
</g>
<g style="mix-blend-mode:multiply" opacity="0.25">
<path d="M722.1 1671.69C723.616 1679.58 724.627 1687.46 724.93 1695.44C739.787 1695.44 755.149 1695.44 770.612 1695.44C754.644 1687.16 738.473 1679.17 722.1 1671.69Z" fill="#D6B800"/>
</g>
<path d="M236.162 1935.8C236.162 1935.8 147.121 2009.99 125.998 2065.07C125.998 2065.07 20.0782 2092.66 70.9156 2128.64L146.616 2143.5C146.616 2143.5 151.366 2260.03 409.899 2310.87C668.432 2361.71 1232.09 2342.7 1232.09 2342.7C1232.09 2342.7 1588.15 2334.21 1647.48 2285.5C1706.81 2236.78 1701.45 2215.56 1701.45 2215.56C1701.45 2215.56 1861.54 2212.73 1713.18 2141.07C1713.18 2141.07 1671.74 1959.15 1571.68 1944.39C1471.62 1929.54 236.162 1935.9 236.162 1935.9V1935.8Z" fill="#AFE2FB" stroke="black" stroke-width="7.58013" stroke-miterlimit="10"/>
<g style="mix-blend-mode:multiply" opacity="0.51">
<path d="M70.9145 2128.63L126.401 2139.54C156.722 2145.51 201.697 2131.26 234.039 2131.76C275.376 2132.47 316.612 2137.22 357.242 2144.39C430.617 2157.43 503.184 2177.85 573.326 2202.41C682.581 2240.81 798.506 2260.22 914.432 2258.8C1033.29 2257.29 1148.1 2216.66 1267.36 2223.13C1321.54 2226.06 1374.09 2239.3 1427.96 2244.35C1505.08 2251.53 1629.69 2178.66 1695.49 2232.22C1682.25 2221.41 1761.59 2207.26 1764.42 2204.43C1794.74 2175.52 1737.84 2152.78 1713.28 2140.96C1713.28 2140.96 1671.84 1959.04 1571.78 1944.28C1471.72 1929.42 236.262 1935.79 236.262 1935.79C236.262 1935.79 147.221 2009.97 126.098 2065.06C126.098 2065.06 20.1783 2092.65 71.0157 2128.63H70.9145Z" fill="#8FCAD9"/>
</g>
<g style="mix-blend-mode:multiply">
<path d="M919.687 2025.22C1042.77 2025.22 1142.54 1925.45 1142.54 1802.37C1142.54 1679.29 1042.77 1579.51 919.687 1579.51C796.607 1579.51 696.831 1679.29 696.831 1802.37C696.831 1925.45 796.607 2025.22 919.687 2025.22Z" fill="#5AD8C5"/>
</g>
<path d="M893.613 2182.01C893.613 2182.01 1088.37 2167.66 1297.18 2165.43C1401.18 2164.32 1479.2 2133.49 1531.35 2102.97C1599.37 2063.15 1647.08 1994.93 1656.27 1912.96C1661.33 1867.89 1655.77 1815.13 1625.25 1761.56C1543.79 1618.65 1252 1716.28 1252 1716.28C1252 1716.28 1065.13 1788.14 914.533 1882.74C914.533 1882.74 870.063 1918.62 851.164 1912.26C832.264 1905.89 745.042 1903.77 771.623 1998.26C771.623 1998.26 746.558 2054.36 794.06 2098.93C794.06 2098.93 838.126 2205.25 893.814 2182.11L893.613 2182.01Z" fill="#81E9DD" stroke="#0A0A0A" stroke-width="7.58013" stroke-miterlimit="10"/>
<g style="mix-blend-mode:multiply" opacity="0.36">
<path d="M1416.94 1980.89C1381.17 1884.67 1404.01 1775.72 1471.22 1699.72C1475.67 1694.66 1480.52 1690.01 1485.37 1685.36C1376.31 1674.45 1251.8 1716.09 1251.8 1716.09C1251.8 1716.09 1064.92 1787.95 914.332 1882.55C914.332 1882.55 869.861 1918.43 850.961 1912.06C832.062 1905.69 744.84 1903.57 771.421 1998.07C771.421 1998.07 746.356 2054.16 793.858 2098.73C793.858 2098.73 837.924 2205.06 893.613 2181.91C893.613 2181.91 1088.37 2167.56 1297.18 2165.34C1392.79 2164.33 1466.47 2138.15 1518.21 2110.26C1474.05 2082.46 1439.18 2040.52 1417.05 1980.89H1416.94Z" fill="#5AD8C5"/>
</g>
<path d="M1008.93 1971.17C1008.93 1971.17 846.614 1872.63 680.559 1757.71C597.885 1700.51 517.434 1678.88 457.5 1671.7C379.375 1662.3 299.834 1684.44 242.124 1737.9C210.388 1767.31 182.291 1808.15 173.397 1863.53C149.646 2011.29 439.712 2104.28 439.712 2104.28C439.712 2104.28 631.237 2157.14 808.208 2173.61C808.208 2173.61 865.312 2172.8 876.328 2187.86C887.344 2202.92 954.757 2253.25 991.95 2170.78C991.95 2170.78 1046.22 2144.6 1036.22 2086.29C1036.22 2086.29 1066.84 1985.62 1008.83 1971.07L1008.93 1971.17Z" fill="#81E9DD" stroke="#0A0A0A" stroke-width="7.58013" stroke-miterlimit="10"/>
<g style="mix-blend-mode:multiply" opacity="0.36">
<path d="M347.135 1723.76C352.896 1771.86 348.146 1821.69 369.371 1867.78C403.734 1942.16 488.328 1980.97 569.486 1992.19C665.097 2005.43 779.91 2009.78 875.622 1995.63C885.426 1994.21 989.425 1962.38 987.606 1960.56C955.365 1928.82 904.427 1905.98 865.819 1881.12C803.459 1841 741.605 1799.96 680.661 1757.71C597.987 1700.51 517.537 1678.88 457.603 1671.71C419.905 1667.16 373.11 1667.56 339.05 1683.73C343.093 1696.87 345.518 1710.21 347.135 1723.76Z" fill="#5AD8C5"/>
</g>
<path d="M933.939 2140.24C933.939 2140.24 946.068 2168.24 992.155 2170.76L933.939 2140.24Z" fill="#81E9DD"/>
<path d="M933.939 2140.24C933.939 2140.24 946.068 2168.24 992.155 2170.76" stroke="#0A0A0A" stroke-width="7.58013" stroke-miterlimit="10"/>
<path d="M1037.84 2080.72C1037.84 2080.72 1020.15 2061.62 981.845 2064.35L1037.84 2080.72Z" fill="#81E9DD"/>
<path d="M1037.84 2080.72C1037.84 2080.72 1020.15 2061.62 981.845 2064.35" stroke="#0A0A0A" stroke-width="7.58013" stroke-miterlimit="10"/>
<path d="M1479.1 329.526L1478.39 320.329C1476.27 301.227 1482.64 280.407 1500.33 259.182C1516.19 240.485 1525.09 226.638 1525.09 210.771C1525.09 192.781 1513.77 180.753 1491.53 180.349C1478.8 180.349 1464.65 184.594 1455.86 191.264L1447.37 169.029C1458.99 160.54 1479.2 154.88 1497.9 154.88C1538.53 154.88 1556.92 179.945 1556.92 206.829C1556.92 230.883 1543.48 248.166 1526.5 268.38C1510.94 286.774 1505.28 302.339 1506.39 320.329L1506.79 329.526H1479.2H1479.1ZM1471.32 379.05C1471.32 366.012 1480.11 356.815 1492.54 356.815C1504.98 356.815 1513.36 366.012 1513.36 379.05C1513.36 391.38 1505.28 400.981 1492.14 400.981C1479.81 400.981 1471.32 391.481 1471.32 379.05Z" fill="black"/>
<path d="M1477.89 677.595L1477.18 667.893C1474.96 647.679 1481.63 625.646 1500.33 603.209C1517.2 583.4 1526.5 568.745 1526.5 551.967C1526.5 532.865 1514.58 520.131 1490.93 519.828C1477.48 519.828 1462.53 524.275 1453.13 531.45L1444.13 507.902C1456.46 498.906 1477.79 492.943 1497.6 492.943C1540.65 492.943 1560.06 519.524 1560.06 547.925C1560.06 573.394 1545.81 591.687 1527.92 613.013C1511.44 632.519 1505.48 648.892 1506.59 667.994L1507 677.696H1477.79L1477.89 677.595ZM1469.7 729.949C1469.7 716.102 1479 706.4 1492.14 706.4C1505.28 706.4 1514.17 716.102 1514.17 729.949C1514.17 743.088 1505.58 753.093 1491.73 753.093C1478.7 753.093 1469.7 742.987 1469.7 729.949Z" fill="black"/>
<path d="M1686.39 521.94L1685.79 513.652C1683.87 496.47 1689.63 477.672 1705.6 458.469C1719.95 441.59 1727.93 429.159 1727.93 414.807C1727.93 398.535 1717.72 387.721 1697.61 387.418C1686.19 387.418 1673.36 391.258 1665.37 397.322L1657.69 377.21C1668.2 369.529 1686.39 364.475 1703.27 364.475C1739.96 364.475 1756.54 387.114 1756.54 411.371C1756.54 432.999 1744.41 448.665 1729.14 466.857C1715.1 483.433 1710.04 497.481 1710.95 513.753L1711.26 522.041H1686.39V521.94ZM1679.42 566.612C1679.42 554.787 1687.4 546.499 1698.52 546.499C1709.64 546.499 1717.32 554.787 1717.32 566.612C1717.32 577.729 1709.94 586.421 1698.22 586.421C1687.1 586.421 1679.42 577.831 1679.42 566.612Z" fill="black"/>
<g clip-path="url(#clip0_6140_1742)">
<path d="M1336.37 567.306C1335.97 574.607 1335.87 582.008 1335.67 589.31C1330.97 783.846 1202.64 898.367 1202.64 898.367C1120.83 972.28 1011.41 1019.79 895.288 1019.79C866.283 1019.79 834.377 1012.39 802.871 1001.29C730.258 981.682 663.745 944.275 609.335 895.166C609.335 895.166 481.012 780.645 476.311 586.109C476.111 578.808 476.011 571.406 475.611 564.105C473.81 532.599 470.81 416.178 519.619 369.869C519.619 369.869 457.207 276.052 515.218 188.536C541.123 149.429 582.63 122.524 629.139 116.023C670.547 110.221 724.557 119.023 765.064 183.635L799.37 164.331C799.37 164.331 774.466 114.422 834.277 97.6192C834.277 97.6192 794.97 50.9105 833.377 15.404C871.684 -20.2026 912.791 40.6086 912.791 40.6086L1012.61 167.532L1046.92 186.836C1122.63 66.2133 1245.15 140.127 1245.15 140.127C1382.58 237.345 1292.36 373.07 1292.36 373.07C1341.17 419.378 1338.17 535.8 1336.37 567.306Z" fill="#81E9DD" stroke="#0A0A0A" stroke-width="7.50138" stroke-miterlimit="10"/>
<g style="mix-blend-mode:multiply" opacity="0.36">
<path d="M1292.36 373.078C1292.36 373.078 1354.78 279.161 1296.67 191.544C1271.06 152.937 1230.15 126.132 1184.24 119.431C1143.64 113.43 1090.53 121.231 1049.92 182.343C1059.42 193.045 1068.82 203.847 1077.83 214.949C1151.14 305.165 1200.25 397.382 1207.65 516.304C1222.15 747.447 1038.62 939.382 810.276 944.983C745.964 946.584 685.653 935.182 630.443 913.177C680.552 953.385 739.363 984.191 802.775 1001.29C834.28 1012.4 866.186 1019.8 895.192 1019.8C1011.31 1019.8 1120.73 972.288 1202.55 898.375C1202.55 898.375 1330.87 783.854 1335.57 589.318C1335.77 582.016 1335.87 574.615 1336.27 567.314C1338.07 535.808 1341.07 419.386 1292.26 373.078H1292.36Z" fill="#68D8C9"/>
</g>
<g style="mix-blend-mode:multiply" opacity="0.36">
<path d="M1081.42 207.038C1081.42 207.038 1148.44 134.225 1224.65 192.235C1224.65 192.235 1296.56 234.243 1259.36 345.864" fill="#68D8C9"/>
<path d="M1081.42 207.038C1081.42 207.038 1148.44 134.225 1224.65 192.235C1224.65 192.235 1296.56 234.243 1259.36 345.864" stroke="#0A0A0A" stroke-width="7.50138" stroke-miterlimit="10"/>
</g>
<path d="M834.181 97.6387L892.892 170.852" stroke="#0A0A0A" stroke-width="7.50138" stroke-miterlimit="10"/>
<path d="M799.37 164.328C799.37 164.328 810.672 188.032 870.783 207.036L799.37 164.328Z" fill="#81E9DD"/>
<path d="M799.37 164.328C799.37 164.328 810.672 188.032 870.783 207.036" stroke="#0A0A0A" stroke-width="7.50138" stroke-miterlimit="10"/>
<path d="M598.629 837.357C522.315 684.129 506.812 517.598 550.42 353.168C543.619 335.064 539.318 315.561 538.418 295.357C534.717 213.142 602.13 141.929 680.044 127.126C623.334 114.524 571.224 145.729 571.224 145.729C437.099 240.647 525.116 373.171 525.116 373.171C469.805 425.681 482.708 570.608 482.708 570.608C481.408 768.844 612.732 886.066 612.732 886.066C625.234 897.368 638.337 907.87 652.039 917.772C631.535 893.567 613.432 867.062 598.629 837.357Z" fill="#A8FAEF"/>
<g style="mix-blend-mode:multiply" opacity="0.36">
<path d="M725.86 207.038C725.86 207.038 658.848 134.225 582.634 192.235C582.634 192.235 510.72 234.243 547.927 345.864" fill="#68D8C9"/>
<path d="M725.86 207.038C725.86 207.038 658.848 134.225 582.634 192.235C582.634 192.235 510.72 234.243 547.927 345.864" stroke="#0A0A0A" stroke-width="7.50138" stroke-miterlimit="10"/>
</g>
<path d="M874.685 54.7149C925.895 82.72 961.801 126.528 996.608 171.536C997.408 170.936 998.208 170.336 999.008 169.736L998.308 169.336L902.291 55.0149C902.291 55.0149 867.084 3.00533 834.278 33.4109C831.577 35.9114 829.577 38.4119 827.677 41.0123C844.08 42.4126 860.183 46.8134 874.585 54.7149H874.685Z" fill="#A8FAEF"/>
</g>
<path d="M869.542 809.185L885.713 874.88C886.118 876.598 887.835 877.81 889.756 877.81H929.476C931.396 877.81 933.114 876.598 933.519 874.88L949.689 809.185C950.195 806.962 948.578 804.839 946.152 804.536L910.172 800.796C910.172 800.796 909.565 800.796 909.262 800.796L873.282 804.536C870.856 804.738 869.138 806.962 869.744 809.185H869.542Z" fill="white" stroke="#9F9F9F" stroke-width="7.58013" stroke-miterlimit="10"/>
<path d="M912.698 805.532L908.857 867.386L905.118 805.532H912.698Z" fill="#9F9F9F"/>
<path d="M823.757 780.171C841.747 812.411 874.19 815.949 896.222 813.927C901.276 813.422 905.622 811.502 908.856 808.47V686.682C893.291 685.874 878.03 687.087 866.609 688.299C807.99 694.566 794.245 727.312 823.757 780.171Z" fill="#BBF9F0" stroke="#659F97" stroke-width="7.58013" stroke-miterlimit="10"/>
<path d="M994.663 780.171C976.673 812.411 944.23 815.949 922.198 813.927C917.144 813.422 912.798 811.502 909.564 808.47V686.682C925.129 685.874 940.39 687.087 951.81 688.299C1010.43 694.566 1024.18 727.312 994.663 780.171Z" fill="#BBF9F0" stroke="#659F97" stroke-width="7.58013" stroke-miterlimit="10"/>
<path d="M859.433 683.548C866.306 698.001 881.365 718.72 908.856 714.677C936.347 718.72 951.406 698.001 958.279 683.548C961.917 676.069 957.975 667.276 949.587 664.446C940.491 661.414 926.846 658.079 908.856 657.371C890.866 658.079 877.222 661.515 868.126 664.446C859.737 667.276 855.795 676.069 859.433 683.548Z" fill="#0A0A0A"/>
<path d="M888.947 686.275C894.027 686.275 898.144 682.429 898.144 677.685C898.144 672.94 894.027 669.094 888.947 669.094C883.868 669.094 879.75 672.94 879.75 677.685C879.75 682.429 883.868 686.275 888.947 686.275Z" fill="white"/>
<path d="M1034.31 401.764C1034.31 401.764 1088 349.192 1157.57 377.069" stroke="black" stroke-width="10.2372" stroke-miterlimit="10"/>
<path d="M1077.65 617.613C1115.53 617.613 1146.24 586.905 1146.24 549.024C1146.24 511.143 1115.53 480.435 1077.65 480.435C1039.77 480.435 1009.06 511.143 1009.06 549.024C1009.06 586.905 1039.77 617.613 1077.65 617.613Z" fill="white"/>
<path d="M1049.8 612.053C1015.3 598.028 994.52 554.725 1012.03 519.919C1037.62 465.047 1123.2 465.662 1145.01 522.887C1169.37 582.672 1107.33 639.181 1049.8 612.053ZM1050.11 611.336C1102.01 634.575 1158.72 577.349 1138.25 525.447C1118.29 469.961 1039.56 466.276 1017.86 522.478C1004.24 554.418 1016.63 597.004 1050.11 611.336Z" fill="black"/>
<path d="M1103.57 585.44C1127.26 585.44 1146.46 566.236 1146.46 542.547C1146.46 518.857 1127.26 499.653 1103.57 499.653C1079.88 499.653 1060.67 518.857 1060.67 542.547C1060.67 566.236 1079.88 585.44 1103.57 585.44Z" fill="black"/>
<path d="M1085.5 537.422C1095.68 537.422 1103.93 529.172 1103.93 518.995C1103.93 508.818 1095.68 500.568 1085.5 500.568C1075.33 500.568 1067.08 508.818 1067.08 518.995C1067.08 529.172 1075.33 537.422 1085.5 537.422Z" fill="white"/>
<path d="M779.702 397.473C779.702 397.473 716.611 438.285 654 397.098" stroke="black" stroke-width="10.2372" stroke-miterlimit="10"/>
<path d="M768.279 611.338C801.754 597.006 814.244 554.521 800.526 522.479C778.823 466.277 699.997 469.963 680.137 525.448C659.663 577.35 716.376 634.474 768.279 611.338ZM768.586 612.054C711.053 639.183 648.915 582.674 673.381 522.889C695.187 465.765 780.769 465.049 806.362 519.92C823.867 554.726 803.085 598.029 768.586 612.054Z" fill="black"/>
<path d="M740.639 617.613C778.519 617.613 809.227 586.905 809.227 549.024C809.227 511.143 778.519 480.435 740.639 480.435C702.758 480.435 672.05 511.143 672.05 549.024C672.05 586.905 702.758 617.613 740.639 617.613Z" fill="white"/>
<path d="M765.95 585.44C789.64 585.44 808.845 566.236 808.845 542.546C808.845 518.857 789.64 499.652 765.95 499.652C742.261 499.652 723.057 518.857 723.057 542.546C723.057 566.236 742.261 585.44 765.95 585.44Z" fill="black"/>
<path d="M747.888 536.506C758.065 536.506 766.315 528.256 766.315 518.079C766.315 507.902 758.065 499.652 747.888 499.652C737.711 499.652 729.462 507.902 729.462 518.079C729.462 528.256 737.711 536.506 747.888 536.506Z" fill="white"/>
<path d="M1190.75 955.743C1190.75 955.743 1227.34 834.36 1270.49 843.86C1313.65 853.36 1279.39 945.333 1279.39 945.333C1279.39 945.333 1268.27 1018.41 1304.86 1054.99C1304.86 1054.99 1321.43 1146.96 1174.18 1151.31C1174.18 1151.31 1086.85 1155.05 1095.04 1095.52C1095.04 1095.52 1046.12 1067.02 1077.96 1029.52L1096.76 1013.15C1096.76 1013.15 992.354 958.977 1028.23 922.896C1064.11 886.814 1190.85 955.743 1190.85 955.743H1190.75Z" fill="#81E9DD" stroke="#0A0A0A" stroke-width="7.58013" stroke-miterlimit="10"/>
<path d="M1311.33 1057.62C1311.33 1057.62 1526.3 1390.95 1484.16 1515.16C1472.23 1550.13 1453.43 1571.05 1432.41 1583.08C1379.04 1613.8 1310.72 1585.61 1289.6 1527.8C1251.8 1424.1 1177.41 1213.88 1173.17 1151.32C1173.17 1151.32 1205.31 1072.58 1311.43 1057.62H1311.33Z" fill="#FFE400" stroke="black" stroke-width="7.58013" stroke-miterlimit="10"/>
<path d="M501.567 1334.34H1268.27C1301.42 1334.34 1326.69 1364.05 1321.43 1396.8L1254.73 1813.2C1252.4 1827.96 1239.67 1838.77 1224.71 1838.77H545.127C530.169 1838.77 517.536 1827.96 515.11 1813.2L448.405 1396.8C443.149 1364.05 468.416 1334.34 501.567 1334.34Z" fill="#BCC7CC" stroke="black" stroke-width="7.58013" stroke-miterlimit="10"/>
<path d="M1255.03 1802.37L1252.1 1820.36C1250.38 1830.98 1241.29 1838.76 1230.57 1838.76H536.334C525.621 1838.76 516.524 1830.98 514.806 1820.36L511.875 1802.37H1255.03Z" fill="#9BA5A8" stroke="black" stroke-width="7.58013" stroke-miterlimit="10"/>
<path d="M945.258 1586.71C937.88 1612.38 914.129 1631.18 886.032 1631.18C852.073 1631.18 824.481 1603.58 824.481 1569.63C824.481 1535.67 852.073 1507.97 886.032 1507.97C886.841 1507.97 887.649 1507.97 888.458 1508.07C886.84 1513.53 886.032 1519.29 886.032 1525.26C886.032 1558.41 912.31 1585.49 945.258 1586.71Z" fill="#D3DCE0"/>
<defs>
<clipPath id="clip0_6140_1742">
<rect width="869.86" height="1023.09" fill="white" transform="translate(471.01 0.510742)"/>
</clipPath>
</defs>
</svg>
