<svg width="1536" height="2786" viewBox="0 0 1536 2786" fill="none" xmlns="http://www.w3.org/2000/svg">
<ellipse cx="712.81" cy="2676.23" rx="688.958" ry="108.879" fill="#F3F3F3"/>
<path d="M384.632 1823.56C384.632 1823.56 268.201 1951.92 192.602 2100.69C118.923 2245.83 115.891 2390.96 309.942 2355.08C504.095 2319.2 384.632 1823.56 384.632 1823.56Z" fill="#81E9DD" stroke="#0A0A0A" stroke-width="7.58013" stroke-miterlimit="10"/>
<g style="mix-blend-mode:multiply" opacity="0.36">
<path d="M384.631 1823.56C384.631 1823.56 359.667 1851.16 325.304 1895.42C324.798 1939.29 320.352 1983.25 314.793 2025.09C298.723 2147.59 254.758 2245.73 181.281 2340.73C207.256 2359.63 248.795 2366.3 309.84 2355.08C503.993 2319.2 384.53 1823.56 384.53 1823.56H384.631Z" fill="#5AD8C5"/>
</g>
<path d="M341.676 1797.78C341.676 1797.78 320.755 2260.78 248.896 2522.64C248.896 2522.64 151.971 2651.51 212.511 2706.59C221.203 2714.47 232.725 2718.62 244.55 2718.62H524.206C524.206 2718.62 563.118 2726.1 566.048 2597.44C568.979 2468.77 738.067 2100.68 738.067 2100.68C738.067 2100.68 812.858 2402.47 824.379 2514.76C824.379 2514.76 835.699 2587.23 810.129 2629.78C784.558 2672.33 814.374 2713.56 854.195 2708.61H1190.75C1190.75 2708.61 1247.55 2703.66 1246.85 2664.54C1246.14 2625.43 1236.94 2605.62 1135.37 2548.82C1135.37 2548.82 1114.75 2070.26 1121.82 1833.46C1128.9 1596.66 350.672 1654.67 341.576 1797.78H341.676Z" fill="#81E9DD" stroke="#0A0A0A" stroke-width="7.58013" stroke-miterlimit="10"/>
<path d="M1084.73 1971.42C1080.49 1905.82 1087.66 1831.74 1049.16 1778.48C1030.46 1752.6 1016.81 1851.05 1019.95 1926.85C1024.39 2032.87 1050.57 2129.69 1076.34 2232.07C1077.76 2237.63 1090.7 2063.9 1084.73 1971.42Z" fill="#BBF9F0"/>
<g style="mix-blend-mode:multiply" opacity="0.36">
<path d="M1012.27 2589.77C1012.27 2587.45 1012.27 2585.43 1012.27 2583.71C1012.06 2583 1011.96 2582.49 1011.76 2581.69C1006 2557.73 1000.85 2533.98 993.266 2510.43C991.851 2506.19 979.723 2473.24 976.489 2463.94C966.382 2440.29 956.376 2416.54 946.37 2392.79C884.82 2245.03 867.638 2087.06 863.595 1928.58C850.962 1944.55 837.52 1960.22 822.966 1975.48C783.448 2017.32 732.307 2038.75 679.651 2042.49C671.97 2119.6 651.655 2194.59 603.951 2265.44C544.118 2354.38 407.474 2342.56 374.929 2235.53C342.487 2128.9 381.802 2023.49 399.287 1917.97C408.585 1861.67 416.772 1792.85 405.756 1733.12C367.147 1751.51 343.093 1773.44 341.577 1797.9C341.577 1797.9 321.869 2233.71 255.062 2498.81C256.376 2498.81 257.791 2498.71 259.105 2498.71C385.845 2498.71 480.95 2598.06 493.685 2718.74H524.107C524.107 2718.74 563.018 2726.21 565.949 2597.55C568.981 2468.89 737.967 2100.8 737.967 2100.8C737.967 2100.8 812.758 2402.59 824.28 2514.88C824.28 2514.88 835.6 2587.35 810.029 2629.9C784.459 2672.55 814.274 2713.68 854.095 2708.73H1010.14C1013.18 2668.91 1012.06 2629.69 1012.06 2589.77H1012.27Z" fill="#5AD8C5"/>
</g>
<path d="M738.17 2100.79L770.916 2015.08" stroke="#0A0A0A" stroke-width="7.58013" stroke-miterlimit="10"/>
<path d="M689.15 2045.52C689.15 2045.52 808.209 2026.92 857.328 1930.2L689.15 2045.52Z" fill="#81E9DD"/>
<path d="M689.15 2045.52C689.15 2045.52 808.209 2026.92 857.328 1930.2" stroke="#0A0A0A" stroke-width="7.58013" stroke-miterlimit="10"/>
<path d="M1097.77 2588.52C1097.77 2588.52 1196.21 2631.98 1155.68 2708.59L1097.77 2588.52Z" fill="#81E9DD"/>
<path d="M1097.77 2588.52C1097.77 2588.52 1196.21 2631.98 1155.68 2708.59" stroke="#0A0A0A" stroke-width="7.58013" stroke-miterlimit="10"/>
<path d="M974.266 2613.6C974.266 2613.6 1045.62 2639.67 1041.78 2708.6L974.266 2613.6Z" fill="#81E9DD"/>
<path d="M974.266 2613.6C974.266 2613.6 1045.62 2639.67 1041.78 2708.6" stroke="#0A0A0A" stroke-width="7.58013" stroke-miterlimit="10"/>
<path d="M459.02 2613.6C459.02 2613.6 399.389 2661.61 411.012 2718.61L459.02 2613.6Z" fill="#81E9DD"/>
<path d="M459.02 2613.6C459.02 2613.6 399.389 2661.61 411.012 2718.61" stroke="#0A0A0A" stroke-width="7.58013" stroke-miterlimit="10"/>
<path d="M337.635 2613.6C337.635 2613.6 281.846 2630.88 282.755 2718.71L337.635 2613.6Z" fill="#81E9DD"/>
<path d="M337.635 2613.6C337.635 2613.6 281.846 2630.88 282.755 2718.71" stroke="#0A0A0A" stroke-width="7.58013" stroke-miterlimit="10"/>
<path d="M1282.22 850.877C1282.22 850.877 1240.18 778.31 1252.4 695.636C1252.4 695.636 1263.12 510.681 1299.81 508.255C1336.49 505.83 1340.33 624.383 1340.33 624.383C1340.33 624.383 1512.45 689.37 1513.97 739.096C1515.49 788.821 1475.16 860.176 1440.49 879.884C1412.19 895.954 1314.26 902.018 1282.12 850.776L1282.22 850.877Z" fill="#81E9DD" stroke="#0A0A0A" stroke-width="7.58013" stroke-miterlimit="10"/>
<path d="M1462.02 683.311C1462.02 683.311 1491.33 622.973 1523.37 670.778C1559.45 724.648 1471.92 803.481 1471.92 803.481C1471.92 803.481 1442.41 826.221 1441.6 789.23C1440.8 752.239 1436.65 758.91 1462.02 683.412V683.311Z" fill="#81E9DD" stroke="#0A0A0A" stroke-width="7.58013" stroke-miterlimit="10"/>
<path d="M1397.24 633.273C1397.24 633.273 1418.76 598.303 1448.68 633.273C1478.6 668.242 1448.68 736.665 1448.68 736.665C1448.68 736.665 1429.88 784.471 1397.24 783.763C1384.2 783.46 1377.12 769.007 1373.38 751.826C1366.81 721.606 1371.36 689.972 1384.2 661.875L1397.24 633.374V633.273Z" fill="#81E9DD" stroke="#0A0A0A" stroke-width="7.58013" stroke-miterlimit="10"/>
<path d="M1252.61 703.303C1252.61 703.303 1347.61 579.292 1388.54 622.044C1429.48 664.796 1311.43 764.247 1311.43 764.247" fill="#81E9DD"/>
<path d="M1252.61 703.303C1252.61 703.303 1347.61 579.292 1388.54 622.044C1429.48 664.796 1311.43 764.247 1311.43 764.247" stroke="#0A0A0A" stroke-width="7.58013" stroke-miterlimit="10"/>
<path d="M25.3329 1600.1C25.3329 1600.1 0.975385 1580.49 25.3329 1504.99C49.6904 1429.5 176.733 1140.14 237.475 1073.23C267.392 1040.38 358.96 923.952 480.747 927.489C602.535 931.027 987.605 913.441 987.605 913.441C987.605 913.441 1099.18 960.842 1213.19 1097.69C1213.19 1097.69 1225.42 855.428 1290.31 841.177C1355.19 826.926 1461.92 841.177 1469.4 908.994C1482.74 1030.48 1488.7 1431.11 1307.99 1429.4C1127.28 1427.68 1041.27 1299.02 1041.27 1299.02C1041.27 1299.02 1061.28 1432.93 1090.7 1476.8C1120.11 1520.66 1158.82 1764.03 1120.21 1809.11C1081.6 1854.19 944.55 1810.83 894.623 1820.23C844.695 1829.63 428.495 1868.54 357.747 1830.03C357.747 1830.03 328.74 1821.84 346.427 1754.94C364.114 1688.03 395.648 1401.2 395.648 1401.2L403.228 1324.49C403.228 1324.49 352.693 1367.14 328.74 1431.52C328.74 1431.52 246.673 1633.65 186.032 1622.23C125.391 1610.81 142.471 1589.08 25.3329 1600V1600.1Z" fill="#AFE2FB" stroke="black" stroke-width="7.58013" stroke-miterlimit="10"/>
<g style="mix-blend-mode:multiply" opacity="0.51">
<path d="M1423.01 1216.42C1310.52 1315.97 1150.63 1289.49 1066.24 1167.5C1020.45 1101.4 1003.68 1019.84 997.612 938.477C995.288 930.998 993.67 923.418 992.66 915.838C989.425 914.322 987.707 913.513 987.707 913.513C987.707 913.513 602.637 931.099 480.849 927.562C359.062 924.024 267.494 1040.46 237.577 1073.3C176.835 1140.21 49.7924 1429.57 25.4349 1505.07C1.07744 1580.56 25.4349 1600.17 25.4349 1600.17C112.354 1592.09 125.392 1601.99 151.063 1612.3C147.728 1600.68 145.807 1587.84 145.908 1573.79C147.626 1395.61 205.337 1231.68 338.747 1109.59C388.776 1063.8 466.295 1059.86 516.021 1109.59C562.411 1155.98 565.949 1241.08 516.021 1286.86C426.07 1369.13 397.771 1456.05 396.558 1573.89C396.255 1609.98 383.318 1637.97 363.711 1657.88C357.546 1700.13 351.482 1736.31 346.529 1755.11C328.842 1822.02 357.849 1830.2 357.849 1830.2C428.597 1868.71 844.797 1829.8 894.724 1820.4C944.652 1811 1081.7 1854.36 1120.31 1809.28C1158.92 1764.21 1120.31 1520.83 1090.8 1476.97C1061.29 1433.11 1041.37 1299.19 1041.37 1299.19C1041.37 1299.19 1127.38 1427.75 1308.09 1429.57C1411.08 1430.58 1453.43 1301.01 1468.39 1166.79C1454.74 1184.88 1439.79 1201.66 1423.11 1216.42H1423.01Z" fill="#8FCAD9"/>
</g>
<path d="M1090.7 1476.87C1061.18 1433 1041.27 1299.19 1041.27 1299.19C1041.27 1299.19 1043.3 1302.22 1047.44 1307.48C1005.5 1192.66 1012.07 1057.33 1038.24 941.61C1007.21 921.902 987.607 913.513 987.607 913.513C987.607 913.513 602.536 931.099 480.749 927.562C425.262 925.945 376.042 949.19 336.12 978.096C359.365 1009.93 378.265 1044.9 392.212 1082.4C421.32 1160.73 407.474 1227.73 398.277 1307.17C397.266 1316.37 395.447 1325.37 393.021 1334.16C399.287 1327.89 403.229 1324.56 403.229 1324.56L395.649 1401.27C395.649 1401.27 364.115 1688 346.428 1754.91C328.742 1821.92 357.748 1830.1 357.748 1830.1C428.496 1868.51 844.696 1829.7 894.624 1820.3C944.552 1810.9 1081.6 1854.26 1120.21 1809.18C1158.82 1764.21 1120.21 1520.83 1090.7 1476.87ZM802.045 1073.1L696.53 994.57L904.225 940.6L802.045 1073.1Z" fill="#C66730" stroke="black" stroke-width="7.58013" stroke-miterlimit="10"/>
<g style="mix-blend-mode:multiply" opacity="0.4">
<path d="M547.959 1387.56C563.321 1366.94 579.492 1348.15 596.472 1330.76C529.261 1279.42 484.488 1203.21 459.726 1122.97C441.938 1065.46 433.145 998.955 433.246 932.148C397.064 940.234 364.318 957.618 336.221 978.034C359.466 1009.87 378.366 1044.84 392.314 1082.34C421.421 1160.66 407.575 1227.67 398.378 1307.11C397.367 1316.31 395.548 1325.3 393.122 1334.1C399.389 1327.83 403.33 1324.5 403.33 1324.5L395.75 1401.21C395.75 1401.21 364.217 1687.94 346.53 1754.85C328.843 1821.85 357.849 1830.04 357.849 1830.04C376.042 1839.95 417.278 1844.7 469.126 1846.11C466.397 1838.93 463.87 1831.66 461.444 1824.38C439.007 1755.15 438.199 1685.21 451.135 1614.46C465.689 1535.02 499.85 1452.45 548.06 1387.46L547.959 1387.56Z" fill="#A45325"/>
</g>
<path d="M1213.19 1097.88V1160.04" stroke="black" stroke-width="7.58013" stroke-miterlimit="10"/>
<g style="mix-blend-mode:multiply" opacity="0.4">
<path d="M526.329 1736.51C526.329 1736.51 651.654 1755.01 817.81 1729.14C983.967 1703.26 1049.26 1729.14 1049.26 1729.14" stroke="#A45325" stroke-width="10.1068" stroke-miterlimit="10"/>
</g>
<path d="M239.295 1366.21C239.264 1366.18 239.292 1366.13 239.335 1366.14L261.732 1370.25C261.732 1370.25 284.27 1413.31 330.358 1394.81L353.805 1399.36L265.977 1805.25C264.562 1812.02 257.892 1816.27 251.12 1814.75L156.318 1793.12C149.647 1791.61 145.504 1785.04 147.02 1778.37L239.295 1366.21Z" fill="#C43131" stroke="#7F0000" stroke-width="7.58013" stroke-miterlimit="10"/>
<path d="M185.526 1775.36L230.805 1787.39C237.576 1789.21 244.55 1784.96 246.066 1778.09L330.256 1394.94C330.256 1394.94 289.223 1411.72 261.631 1370.38L176.531 1760.81C175.116 1767.28 179.058 1773.74 185.425 1775.46L185.526 1775.36Z" fill="#AFE2FB" stroke="#7F0000" stroke-width="7.58013" stroke-linejoin="round"/>
<path d="M358.556 1400.57L380.792 1404.62C380.792 1404.62 403.026 1447.17 448.608 1428.87L471.753 1433.42L386.653 1826.68C384.228 1837.7 373.312 1844.67 362.296 1842.14L284.372 1824.35C273.457 1821.83 266.685 1811.01 269.111 1800.2L358.556 1400.57Z" fill="#397737" stroke="#084710" stroke-width="7.58013" stroke-miterlimit="10"/>
<path d="M303.776 1804.55L352.29 1817.39C357.949 1818.9 363.71 1815.36 364.923 1809.7L448.608 1428.98C448.608 1428.98 407.978 1445.56 380.791 1404.72L296.298 1792.52C295.085 1797.88 298.42 1803.24 303.676 1804.65L303.776 1804.55Z" fill="#AFE2FB" stroke="#084710" stroke-width="7.58013" stroke-linejoin="round"/>
<g style="mix-blend-mode:multiply" opacity="0.51">
<path d="M277.499 1404.65L220.497 1664.69" stroke="#8FCAD9" stroke-width="10.1068" stroke-miterlimit="10"/>
</g>
<g style="mix-blend-mode:multiply" opacity="0.51">
<path d="M283.664 1482.34L226.662 1742.39" stroke="#8FCAD9" stroke-width="10.1068" stroke-miterlimit="10"/>
</g>
<g style="mix-blend-mode:multiply" opacity="0.51">
<path d="M396.759 1441.91L339.757 1701.96" stroke="#8FCAD9" stroke-width="10.1068" stroke-miterlimit="10"/>
</g>
<g style="mix-blend-mode:multiply" opacity="0.51">
<path d="M405.958 1506.3L348.956 1766.35" stroke="#8FCAD9" stroke-width="10.1068" stroke-miterlimit="10"/>
</g>
<path d="M179.058 1628.07C193.814 1656.26 227.065 1728.33 191.186 1751.07C191.186 1751.07 171.174 1761.98 143.38 1744.4C143.38 1744.4 129.433 1774.11 162.381 1786.14C195.33 1798.16 202.708 1809.18 199.474 1828.38C195.33 1853.25 148.03 1859.01 148.03 1859.01C148.03 1859.01 23.9176 1865.07 7.94878 1730.55C-8.02003 1596.03 38.9769 1591.38 38.9769 1591.38C38.9769 1591.38 121.752 1575.51 162.988 1609.77C169.658 1615.23 174.914 1620.49 178.957 1628.07H179.058Z" fill="#81E9DD" stroke="#0A0A0A" stroke-width="7.58013" stroke-miterlimit="10"/>
<path d="M98.5078 1674.18C98.5078 1674.18 114.982 1720.06 143.382 1744.42L98.5078 1674.18Z" fill="#81E9DD"/>
<path d="M98.5078 1674.18C98.5078 1674.18 114.982 1720.06 143.382 1744.42" stroke="#0A0A0A" stroke-width="7.58013" stroke-miterlimit="10"/>
<path d="M37.5625 1763.2C37.5625 1763.2 79.304 1875.69 175.521 1852.04L37.5625 1763.2Z" fill="#81E9DD"/>
<path d="M37.5625 1763.2C37.5625 1763.2 79.304 1875.69 175.521 1852.04" stroke="#0A0A0A" stroke-width="7.58013" stroke-miterlimit="10"/>
<rect x="1393.53" y="303.763" width="46.6625" height="60.3867" rx="9.1495" fill="#D9D9D9" stroke="black" stroke-width="7.3196"/>
<rect x="1374.32" y="303.763" width="85.0904" height="43.9176" rx="9.1495" fill="#D9D9D9" stroke="black" stroke-width="7.3196"/>
<path d="M1530.59 132.978C1530.59 69.879 1479.19 18.7706 1415.95 19.2168C1356.32 19.6386 1304.85 69.7979 1303.01 129.376C1302.01 161.542 1314.38 190.828 1334.99 212.098C1349.59 227.171 1357.66 247.388 1357.66 268.366V294.862C1357.66 302.049 1363.49 307.874 1370.68 307.874H1462.88C1470.07 307.874 1475.9 302.049 1475.9 294.862V268.366C1475.9 247.477 1483.81 227.261 1498.39 212.285C1518.32 191.793 1530.6 163.821 1530.6 132.986L1530.59 132.978Z" fill="#FFEE99" stroke="black" stroke-width="7.3196" stroke-miterlimit="10"/>
<g clip-path="url(#clip0_6140_1670)">
<path d="M1157.29 566.795C1156.89 574.096 1156.79 581.498 1156.59 588.799C1151.89 783.335 1023.57 897.856 1023.57 897.856C941.753 971.77 832.332 1019.28 716.211 1019.28C687.206 1019.28 655.3 1011.88 623.794 1000.77C551.181 981.171 484.668 943.764 430.258 894.655C430.258 894.655 301.935 780.134 297.234 585.599C297.034 578.297 296.934 570.896 296.534 563.594C294.733 532.089 291.733 415.667 340.542 369.359C340.542 369.359 278.13 275.541 336.141 188.025C362.046 148.918 403.553 122.013 450.062 115.512C491.47 109.711 545.48 118.512 585.987 183.124L620.293 163.821C620.293 163.821 595.389 113.912 655.2 97.1084C655.2 97.1084 615.892 50.3998 654.3 14.8932C692.607 -20.7133 733.714 40.0979 733.714 40.0979L833.533 167.021L867.839 186.325C943.553 65.7026 1066.08 139.616 1066.08 139.616C1203.5 236.834 1113.28 372.559 1113.28 372.559C1162.09 418.868 1159.09 535.289 1157.29 566.795Z" fill="#81E9DD" stroke="#0A0A0A" stroke-width="7.50138" stroke-miterlimit="10"/>
<g style="mix-blend-mode:multiply" opacity="0.36">
<path d="M1113.29 372.567C1113.29 372.567 1175.7 278.649 1117.59 191.033C1091.98 152.426 1051.08 125.621 1005.17 118.92C964.56 112.919 911.45 120.72 870.843 181.831C880.344 192.533 889.746 203.335 898.748 214.437C972.061 304.654 1021.17 396.871 1028.57 515.793C1043.07 746.936 859.54 938.871 631.198 944.472C566.887 946.072 506.575 934.67 451.365 912.666C501.474 952.874 560.285 983.679 623.697 1000.78C655.203 1011.88 687.109 1019.29 716.114 1019.29C832.235 1019.29 941.656 971.777 1023.47 897.863C1023.47 897.863 1151.79 783.342 1156.5 588.807C1156.7 581.505 1156.8 574.104 1157.2 566.802C1159 535.297 1162 418.875 1113.19 372.567H1113.29Z" fill="#68D8C9"/>
</g>
<g style="mix-blend-mode:multiply" opacity="0.36">
<path d="M902.347 206.527C902.347 206.527 969.359 133.713 1045.57 191.724C1045.57 191.724 1117.49 233.732 1080.28 345.352" fill="#68D8C9"/>
<path d="M902.347 206.527C902.347 206.527 969.359 133.713 1045.57 191.724C1045.57 191.724 1117.49 233.732 1080.28 345.352" stroke="#0A0A0A" stroke-width="7.50138" stroke-miterlimit="10"/>
</g>
<path d="M655.104 97.1279L713.815 170.341" stroke="#0A0A0A" stroke-width="7.50138" stroke-miterlimit="10"/>
<path d="M620.293 163.817C620.293 163.817 631.595 187.521 691.706 206.525L620.293 163.817Z" fill="#81E9DD"/>
<path d="M620.293 163.817C620.293 163.817 631.595 187.521 691.706 206.525" stroke="#0A0A0A" stroke-width="7.50138" stroke-miterlimit="10"/>
<path d="M419.552 836.846C343.238 683.617 327.735 517.087 371.343 352.656C364.542 334.553 360.241 315.049 359.341 294.846C355.64 212.63 423.053 141.417 500.967 126.615C444.256 114.012 392.147 145.218 392.147 145.218C258.022 240.136 346.038 372.66 346.038 372.66C290.728 425.17 303.63 570.096 303.63 570.096C302.33 768.333 433.654 885.555 433.654 885.555C446.157 896.857 459.259 907.359 472.962 917.26C452.458 893.056 434.355 866.551 419.552 836.846Z" fill="#A8FAEF"/>
<g style="mix-blend-mode:multiply" opacity="0.36">
<path d="M546.783 206.527C546.783 206.527 479.771 133.713 403.557 191.724C403.557 191.724 331.643 233.732 368.85 345.352" fill="#68D8C9"/>
<path d="M546.783 206.527C546.783 206.527 479.771 133.713 403.557 191.724C403.557 191.724 331.643 233.732 368.85 345.352" stroke="#0A0A0A" stroke-width="7.50138" stroke-miterlimit="10"/>
</g>
<path d="M695.608 54.2041C746.817 82.2093 782.724 126.017 817.53 171.026C818.33 170.426 819.131 169.825 819.931 169.225L819.231 168.825L723.213 54.5042C723.213 54.5042 688.006 2.49459 655.2 32.9002C652.5 35.4007 650.499 37.9011 648.599 40.5016C665.002 41.9019 681.105 46.3027 695.508 54.2041H695.608Z" fill="#A8FAEF"/>
</g>
<path d="M825.593 811.15C825.593 811.15 814.173 881.999 800.124 892.409C800.124 892.409 763.234 902.819 752.723 898.675L744.334 823.682L800.124 791.441L825.593 811.251V811.15Z" fill="white" stroke="#9F9F9F" stroke-width="7.58013" stroke-miterlimit="10"/>
<path d="M797.395 802.142C797.395 802.142 799.517 857.629 778.697 894.822L797.395 802.142Z" fill="white"/>
<path d="M802.348 801.942C800.832 834.183 795.273 867.03 778.597 894.824C791.938 866.12 794.061 833.273 792.241 802.346L802.348 801.942Z" fill="#9F9F9F"/>
<path d="M758.483 693.51C758.483 693.51 657.617 687.041 664.288 780.529C670.048 861.182 768.792 851.479 803.762 809.94C803.762 809.94 856.317 829.75 878.35 779.418C900.383 729.086 867.536 695.329 842.572 689.164C817.608 682.998 766.771 692.499 758.584 693.51H758.483Z" fill="#BBF9F0" stroke="#659F97" stroke-width="7.58013" stroke-miterlimit="10"/>
<path d="M808.917 764.772C810.13 737.888 804.167 712.217 793.049 688.87C811.848 686.848 833.275 685.838 847.323 689.274C874.814 696.147 910.895 733.138 886.639 788.523C871.175 823.998 840.249 827.232 820.136 825.009C809.423 823.796 801.741 813.992 803.662 803.38C805.784 791.454 808.412 775.789 808.917 764.772Z" fill="#BBF9F0" stroke="#659F97" stroke-width="7.58013" stroke-miterlimit="10"/>
<path d="M925.348 729.079C913.118 751.719 866.324 827.621 802.549 763.948C801.741 763.14 800.528 763.14 799.72 763.948C737.562 826.206 689.656 769.81 675.506 749.394C674.294 747.676 676.214 745.554 678.134 746.564C731.397 773.954 763.941 756.368 781.123 738.479C782.033 737.67 795.475 724.936 799.821 720.792C800.629 720.084 801.741 720.084 802.449 720.792C806.795 724.936 820.236 737.67 821.146 738.479C838.53 756.57 868.85 755.863 922.518 726.553C924.236 725.643 926.358 727.26 925.348 729.079Z" fill="#77432F" stroke="#512833" stroke-width="7.58013" stroke-miterlimit="10"/>
<path d="M756.361 943.041C756.462 934.955 761.819 927.78 769.5 925.253C785.873 919.896 813.364 912.72 813.667 924.849C814.072 942.03 811.545 984.681 780.112 982.458C759.292 980.942 756.159 958.201 756.462 942.94L756.361 943.041Z" fill="#77432F" stroke="#512833" stroke-width="7.58013" stroke-miterlimit="10"/>
<path d="M841.461 666.733C851.163 668.249 856.823 678.659 853.084 687.655C847.525 700.996 835.397 718.177 809.018 725.252C777.889 733.641 761.415 709.384 753.936 692.809C750.297 684.724 754.34 675.223 762.628 672.191C777.384 666.834 803.863 660.871 841.36 666.733H841.461Z" fill="#0A0A0A"/>
<path d="M828.726 695.028C833.805 695.028 837.923 690.91 837.923 685.83C837.923 680.751 833.805 676.633 828.726 676.633C823.646 676.633 819.528 680.751 819.528 685.83C819.528 690.91 823.646 695.028 828.726 695.028Z" fill="white"/>
<path d="M581.981 372.898C581.981 372.898 506.943 376.833 480.376 446.909" stroke="black" stroke-width="10.2372" stroke-miterlimit="10"/>
<path d="M605.817 632.033C643.645 630.05 672.704 597.776 670.72 559.948C668.737 522.119 636.463 493.061 598.635 495.044C560.806 497.027 531.747 529.301 533.731 567.13C535.714 604.958 567.988 634.017 605.817 632.033Z" fill="white"/>
<path d="M622.083 629.522C586.828 641.416 542.754 621.994 533.394 584.248C517.114 525.952 582.493 470.756 636.201 499.924C693.616 529.41 683.322 612.677 621.986 629.629L622.083 629.522ZM621.841 628.817C676.349 612.632 682.182 532.265 632.843 506.25C581.599 477.158 519.353 525.63 539.55 582.388C550.003 615.566 587.151 639.759 621.841 628.817Z" fill="black"/>
<path d="M613.725 630.37C637.382 629.13 655.554 608.947 654.314 585.29C653.074 561.633 632.89 543.46 609.233 544.701C585.576 545.941 567.404 566.124 568.644 589.781C569.884 613.438 590.068 631.611 613.725 630.37Z" fill="black"/>
<path d="M640.731 582.162C650.894 581.629 658.701 572.959 658.168 562.796C657.635 552.633 648.964 544.826 638.801 545.359C628.638 545.892 620.832 554.563 621.365 564.726C621.897 574.888 630.568 582.695 640.731 582.162Z" fill="white"/>
<path d="M957.655 342.952C957.655 342.952 1032.69 339.018 1066.44 405.932" stroke="black" stroke-width="10.2372" stroke-miterlimit="10"/>
<path d="M945.82 609.999C983.648 608.016 1012.71 575.742 1010.72 537.914C1008.74 500.085 976.466 471.026 938.638 473.01C900.809 474.993 871.75 507.267 873.734 545.096C875.717 582.924 907.991 611.982 945.82 609.999Z" fill="white"/>
<path d="M917.73 606.025C882.544 593.826 859.524 551.67 875.183 515.995C897.868 459.859 983.366 455.992 1008.14 511.998C1035.6 570.425 976.605 630.105 917.73 606.025ZM917.999 605.294C971.047 625.783 1024.69 565.667 1001.52 514.907C978.684 460.543 899.875 460.984 881.145 518.245C869.22 550.854 883.82 592.734 917.999 605.294Z" fill="black"/>
<path d="M937.266 609.123C960.923 607.883 979.096 587.7 977.856 564.043C976.615 540.386 956.432 522.214 932.775 523.454C909.118 524.694 890.946 544.877 892.186 568.534C893.426 592.191 913.609 610.364 937.266 609.123Z" fill="black"/>
<path d="M966.935 565.013C977.098 564.481 984.904 555.81 984.372 545.647C983.839 535.484 975.168 527.677 965.005 528.21C954.842 528.743 947.035 537.414 947.568 547.577C948.101 557.74 956.772 565.546 966.935 565.013Z" fill="white"/>
<path d="M945.774 708.802C1025.61 704.617 1086.94 636.504 1082.75 556.669C1078.56 476.833 1010.45 415.507 930.617 419.692C850.781 423.878 789.455 491.99 793.641 571.826C797.826 651.661 865.938 712.988 945.774 708.802Z" stroke="black" stroke-width="10.2372" stroke-miterlimit="10"/>
<path d="M608.411 726.489C688.247 722.303 749.573 654.191 745.388 574.355C741.202 494.52 673.09 433.193 593.254 437.379C513.419 441.564 452.093 509.677 456.278 589.512C460.464 669.348 528.576 730.674 608.411 726.489Z" stroke="black" stroke-width="10.2372" stroke-miterlimit="10"/>
<path d="M745.385 574.361L793.638 571.832" stroke="black" stroke-width="10.2372" stroke-miterlimit="10"/>
<defs>
<clipPath id="clip0_6140_1670">
<rect width="869.86" height="1023.09" fill="white" transform="translate(291.933)"/>
</clipPath>
</defs>
</svg>
