<svg width="1399" height="2786" viewBox="0 0 1399 2786" fill="none" xmlns="http://www.w3.org/2000/svg">
<ellipse cx="534.331" cy="108.879" rx="534.331" ry="108.879" transform="matrix(-1 0 0 1 1100.23 2567.35)" fill="#F3F3F3"/>
<path d="M200.599 1845.35C200.599 1845.35 44.8525 2338.16 195.95 2361.71C195.95 2361.71 247.394 2370 265.384 2327.14C283.374 2284.29 200.599 1845.35 200.599 1845.35Z" fill="#81E9DD" stroke="#0A0A0A" stroke-width="7.58013" stroke-miterlimit="10"/>
<g style="mix-blend-mode:multiply" opacity="0.36">
<path d="M225.765 2253.06C219.903 2195.65 211.818 2143.71 191.2 2090.34C185.338 2075.08 178.768 2060.02 173.311 2044.56C165.831 2023.33 161.89 1963.1 165.528 2031.62C164.821 2019.09 163.103 2006.96 160.879 1995.03C179.88 1910.74 200.498 1845.35 200.498 1845.35C200.498 1845.35 283.374 2284.19 265.283 2327.14C256.894 2347.26 241.128 2356.05 226.675 2359.79C229.606 2324.52 229.302 2288.84 225.664 2253.06H225.765Z" fill="#5AD8C5"/>
</g>
<path d="M200.498 1775.33C196.658 1783.72 195.243 1792.92 196.254 1802.01L234.66 2183.04C234.66 2183.04 258.815 2416.11 255.379 2431.67C251.942 2447.23 258.815 2538.7 234.66 2568.01C210.504 2597.32 201.913 2688.89 255.379 2704.35C271.752 2709.1 303.083 2713.85 339.872 2716.68C389.092 2720.42 448.419 2720.52 495.315 2712.44C517.045 2708.7 536.046 2703.14 550.296 2695.36C563.334 2688.28 578.494 2686.46 592.543 2691.11C609.522 2696.67 634.587 2703.65 665.211 2708.6C701.495 2714.46 745.662 2717.59 793.871 2712.34C812.67 2710.32 832.075 2706.98 851.783 2702.13C870.38 2697.48 884.631 2682.62 889.179 2664.03C891.705 2653.72 894.636 2640.38 897.77 2623.3C907.573 2570.44 794.781 2516.37 805.797 2479.88C816.308 2445.31 889.785 2218.82 897.668 2194.46C898.073 2193.05 898.578 2191.84 899.083 2190.52C906.664 2172.43 968.517 2020.63 982.768 1821.12C997.019 1621.61 305.711 1544.09 200.296 1775.23L200.498 1775.33Z" fill="#81E9DD" stroke="#0A0A0A" stroke-width="7.58013" stroke-miterlimit="10"/>
<path d="M879.677 2154.53C874.826 2169.39 828.941 2289.46 828.435 2264.8C827.02 2189.8 836.925 2116.23 863.102 2046.59C876.443 2011.11 891.502 1976.25 907.067 1941.68C913.737 1926.82 928.089 1899.23 937.185 1881.85C939.004 1878.41 944.26 1879.93 943.957 1883.87C930.818 2029.1 886.449 2138.06 880.789 2151.4C880.385 2152.41 879.98 2153.42 879.677 2154.43V2154.53Z" fill="#BBF9F0"/>
<g style="mix-blend-mode:multiply" opacity="0.36">
<path d="M210.706 1777.74C217.68 1802.81 227.484 1827.16 239.511 1850.41C284.992 1999.99 294.189 2160.79 295.402 2316.84C295.199 2318.56 294.997 2320.18 294.795 2321.89C287.923 2370.71 305.913 2419.32 358.266 2433.78C375.953 2438.63 395.459 2437.21 413.348 2430.85C448.318 2421.55 477.527 2393.45 477.426 2346.56C477.426 2342.71 477.426 2338.77 477.426 2334.93C490.969 2269.64 507.14 2200.01 533.317 2140.78C549.589 2103.89 571.824 2069.83 595.878 2037.08C643.785 2020.31 677.845 1982.2 701.191 1935.41C694.42 1965.93 685.93 1999.28 675.419 2029.1C642.673 2122.79 630.646 2221.53 636.71 2321.89C639.843 2374.05 648.737 2425.29 661.977 2475.72C668.243 2499.47 674.509 2523.12 679.462 2547.28C680.776 2553.54 687.648 2603.17 687.547 2596.9C690.984 2635.41 692.297 2673.81 692.095 2712.22C682.797 2711.21 673.802 2710.1 665.413 2708.68C634.789 2703.73 609.724 2696.76 592.745 2691.2C578.595 2686.55 563.536 2688.37 550.498 2695.44C545.344 2698.27 539.381 2700.7 533.115 2702.92C534.327 2695.34 535.237 2687.76 535.54 2679.98C540.088 2577.29 444.882 2489.87 345.431 2489.87C310.36 2489.87 278.422 2499.37 251.033 2515.74C255.176 2480.47 253.256 2441.36 255.48 2431.65C258.916 2416.09 234.761 2183.03 234.761 2183.03L196.355 1802C195.445 1792.8 196.961 1783.5 200.701 1775.11C204.036 1776.12 207.472 1776.83 210.807 1777.64L210.706 1777.74Z" fill="#5AD8C5"/>
</g>
<path d="M701.091 1935.32C701.091 1935.32 651.972 2020.83 583.953 2037.4" stroke="#0A0A0A" stroke-width="7.58013" stroke-miterlimit="10"/>
<path d="M606.996 2029.01C606.996 2029.01 537.259 2355.16 549.488 2455.92C561.717 2556.69 598.405 2622.79 557.877 2692.12" stroke="#0A0A0A" stroke-width="7.58013" stroke-miterlimit="10"/>
<path d="M334.412 2609.76C334.412 2609.76 300.15 2659.79 315.714 2714.57L334.412 2609.76Z" fill="#81E9DD"/>
<path d="M334.412 2609.76C334.412 2609.76 300.15 2659.79 315.714 2714.57" stroke="#0A0A0A" stroke-width="7.58013" stroke-miterlimit="10"/>
<path d="M805.09 2609.76C805.09 2609.76 825.001 2685.16 793.973 2712.45L805.09 2609.76Z" fill="#81E9DD"/>
<path d="M805.09 2609.76C805.09 2609.76 825.001 2685.16 793.973 2712.45" stroke="#0A0A0A" stroke-width="7.58013" stroke-miterlimit="10"/>
<path d="M691.287 2618.13C691.287 2618.13 716.149 2675.23 691.994 2712.12L691.287 2618.13Z" fill="#81E9DD"/>
<path d="M691.287 2618.13C691.287 2618.13 716.149 2675.23 691.994 2712.12" stroke="#0A0A0A" stroke-width="7.58013" stroke-miterlimit="10"/>
<path d="M461.557 2633.29C461.557 2633.29 476.111 2677.46 461.557 2719.2V2633.29Z" fill="#81E9DD"/>
<path d="M461.557 2633.29C461.557 2633.29 476.111 2677.46 461.557 2719.2" stroke="#0A0A0A" stroke-width="7.58013" stroke-miterlimit="10"/>
<path d="M171.291 1668.99C168.865 1675.66 165.53 1682.83 160.982 1690.41C160.982 1690.41 153.604 1706.69 158.556 1736.5C163.508 1766.32 154.917 1784.41 135.512 1791.18C135.512 1791.18 133.39 1808.46 150.167 1830.7C162.599 1847.07 170.785 1866.58 170.684 1887.09C170.684 1889.72 170.583 1892.35 170.381 1895.18C169.067 1913.07 156.332 1920.65 144.002 1923.68C127.629 1927.82 110.346 1923.98 96.2977 1914.68C83.3609 1906.2 66.7858 1891.14 51.0191 1864.86C18.475 1810.58 1.69763 1750.45 19.3846 1634.62C31.715 1553.97 102.362 1577.82 144.103 1599.65C169.168 1612.79 181.094 1642.31 171.392 1668.89L171.291 1668.99Z" fill="#81E9DD" stroke="#0A0A0A" stroke-width="7.58013" stroke-miterlimit="10"/>
<g style="mix-blend-mode:multiply" opacity="0.36">
<path d="M19.282 1634.74C28.0749 1577.13 66.6831 1572.79 103.169 1583.1C71.5344 1623.63 52.2303 1674.56 49.8047 1729.14C46.2673 1807.17 89.3224 1877.91 151.479 1921.17C149.054 1922.18 146.527 1923.09 144 1923.8C127.627 1927.94 110.345 1924.1 96.2961 1914.8C83.3593 1906.31 66.7841 1891.26 51.0174 1864.98C18.4734 1810.7 1.696 1750.57 19.383 1634.74H19.282Z" fill="#5AD8C5"/>
</g>
<path d="M84.3721 1672.63C84.3721 1672.63 63.7541 1784.31 135.513 1791.28L84.3721 1672.63Z" fill="#81E9DD"/>
<path d="M84.3721 1672.63C84.3721 1672.63 63.7541 1784.31 135.513 1791.28" stroke="#0A0A0A" stroke-width="7.58013" stroke-miterlimit="10"/>
<path d="M163.204 1852.95C163.204 1852.95 175.635 1908.13 129.952 1906.92C84.2695 1905.71 41.5175 1846.99 29.1872 1820.91" stroke="#0A0A0A" stroke-width="7.58013" stroke-miterlimit="10"/>
<path d="M1130.63 1064.01L1063.62 1148.9C1063.62 1148.9 969.831 947.879 835.815 927.766C701.798 907.654 237.186 835.693 237.186 835.693C237.186 835.693 80.8334 820.533 167.954 1084.12C167.954 1084.12 60.1144 1219.55 18.9795 1508.1C18.9795 1508.1 -9.52185 1625.54 12.1068 1655.26C12.1068 1655.26 87.4028 1631.3 135.309 1640.4C183.216 1649.5 190.998 1655.05 205.451 1639.89C205.653 1639.69 205.956 1639.79 205.855 1639.89C204.339 1645.45 195.445 1681.53 206.259 1706.6C206.259 1706.6 164.316 1771.89 209.797 1827.28C221.217 1841.22 237.692 1850.12 255.48 1852.85C279.938 1856.59 322.892 1860.93 379.996 1857.6C471.867 1852.14 634.284 1855.78 682.696 1842.13C731.108 1828.49 879.375 1838.49 879.375 1838.49C879.375 1838.49 988.529 1852.14 993.987 1799.38C999.444 1746.62 991.258 1712.16 991.258 1712.16C991.258 1712.16 999.646 1629.69 990.55 1591.99C989.742 1588.75 992.976 1586.03 996.008 1587.24C1019.15 1596.23 1087.88 1603.41 1173.18 1432.81C1278.7 1221.77 1280.31 1107.87 1280.31 1107.87C1280.31 1107.87 1192.69 1081.19 1130.63 1063.8V1064.01Z" fill="#FFE400" stroke="black" stroke-width="7.58013" stroke-miterlimit="10"/>
<g style="mix-blend-mode:multiply" opacity="0.25">
<path d="M900.093 1291.63C900.7 1251.3 891.401 1212.69 874.422 1177.62C866.842 1138.61 868.964 1101.21 866.134 1061.59C862.799 1014.29 845.314 973.261 836.319 927.881C970.033 948.398 1063.62 1148.92 1063.62 1148.92L1087.58 1118.6C1037.75 1240.18 1013.69 1373.09 1015.01 1503.36C1015.31 1534.19 1021.38 1563.2 1031.99 1589.58C1015.92 1593.01 1003.59 1590.38 996.108 1587.45C994.087 1586.65 992.066 1587.66 991.156 1589.37C989.135 1581.49 987.113 1573.61 984.789 1565.93C972.66 1524.39 952.143 1485.88 939.308 1444.64C929.908 1414.42 922.834 1385.11 910.705 1356.31C910.099 1334.08 906.461 1312.45 900.093 1291.73V1291.63Z" fill="#D6B800"/>
</g>
<g style="mix-blend-mode:multiply" opacity="0.25">
<path d="M167.852 1084.13C166.943 1081.5 166.235 1078.97 165.427 1076.45C207.572 1025.61 233.345 960.319 236.579 890.077C237.388 871.48 236.074 853.288 232.839 835.5C235.467 835.5 237.084 835.601 237.084 835.601C237.084 835.601 365.542 855.511 506.836 877.241C482.377 903.013 461.759 933.435 444.578 963.149C425.476 996.097 407.789 1030.87 394.852 1066.85C377.468 1110.1 367.867 1154.47 368.17 1195.81C368.473 1236.34 382.926 1272.42 406.677 1303.04C422.949 1330.43 444.578 1353.48 469.643 1372.88C393.336 1425.44 344.116 1514.58 339.669 1613.32C335.222 1712.37 391.82 1802.12 472.473 1854.67C438.716 1855.38 406.374 1856.19 379.995 1857.71C325.923 1860.94 284.485 1857.2 259.522 1853.56C237.59 1850.43 217.376 1839.01 204.844 1820.82C167.549 1766.95 206.258 1706.71 206.258 1706.71C194.433 1679.42 206.056 1639.2 206.056 1639.2C191.199 1655.16 183.215 1649.5 135.308 1640.31C87.402 1631.21 12.1059 1655.16 12.1059 1655.16C-9.52271 1625.55 18.9787 1508.01 18.9787 1508.01C60.0125 1219.46 167.953 1084.03 167.953 1084.03L167.852 1084.13Z" fill="#D6B800"/>
</g>
<g style="mix-blend-mode:multiply" opacity="0.25">
<path d="M400.412 1727.12C426.892 1736.02 648.333 1730.05 648.333 1730.05C747.177 1740.16 965.081 1712.27 965.081 1712.27" stroke="#AB8F00" stroke-width="10.1068" stroke-miterlimit="10"/>
</g>
<path d="M378.178 937.767C378.178 937.767 284.386 918.463 167.854 1084.11L378.178 937.767Z" fill="#FFE400"/>
<path d="M378.178 937.767C378.178 937.767 284.386 918.463 167.854 1084.11" stroke="black" stroke-width="7.58013" stroke-miterlimit="10"/>
<path d="M313.899 1103.33C313.899 1103.33 308.24 1190.05 301.67 1208.34C296.819 1221.89 273.977 1314.77 272.967 1331.65C271.653 1353.07 242.242 1502.15 227.082 1534.19C211.921 1566.23 205.958 1639.3 205.958 1639.3" fill="#FFE400"/>
<path d="M313.899 1103.33C313.899 1103.33 308.24 1190.05 301.67 1208.34C296.819 1221.89 273.977 1314.77 272.967 1331.65C271.653 1353.07 242.242 1502.15 227.082 1534.19C211.921 1566.23 205.958 1639.3 205.958 1639.3" stroke="black" stroke-width="7.58013" stroke-miterlimit="10"/>
<path d="M842.688 981.849C842.688 981.849 866.54 1062.91 865.53 1134.36C865.53 1134.36 903.632 1260.19 918.894 1373.69C918.894 1373.69 935.065 1457.58 960.837 1497.6C986.61 1537.62 990.753 1592.91 990.753 1592.91" stroke="black" stroke-width="7.58013" stroke-miterlimit="10"/>
<path d="M684.818 997.501C684.818 997.501 694.925 1221.67 740.911 1238.55C770.827 1249.57 778.71 1228.04 780.631 1211.67C781.54 1203.98 781.035 1196.2 779.721 1188.62L744.044 981.734" fill="white"/>
<path d="M684.818 997.501C684.818 997.501 694.925 1221.67 740.911 1238.55C770.827 1249.57 778.71 1228.04 780.631 1211.67C781.54 1203.98 781.035 1196.2 779.721 1188.62L744.044 981.734" stroke="black" stroke-width="7.58013" stroke-miterlimit="10"/>
<g style="mix-blend-mode:multiply">
<path d="M694.624 1085.95C693.916 1086.35 693.108 1086.66 692.4 1087.06C686.639 1038.65 684.82 997.514 684.82 997.514L744.046 981.849L749.605 1013.99C727.875 1034.91 709.38 1059.17 694.725 1085.95H694.624Z" fill="#B3E4EA"/>
</g>
<path d="M583.851 1021.05C583.851 1021.05 579.606 1157.6 558.887 1222.38C554.339 1236.53 549.386 1251.69 535.742 1257.55C522.098 1263.42 502.592 1260.28 500.469 1232.49C495.82 1171.95 519.066 993.261 519.066 993.261" fill="white"/>
<path d="M583.851 1021.05C583.851 1021.05 579.606 1157.6 558.887 1222.38C554.339 1236.53 549.386 1251.69 535.742 1257.55C522.098 1263.42 502.592 1260.28 500.469 1232.49C495.82 1171.95 519.066 993.261 519.066 993.261" stroke="black" stroke-width="7.58013" stroke-miterlimit="10"/>
<g style="mix-blend-mode:multiply">
<path d="M500.772 1179.83C504.714 1103.22 518.965 993.261 518.965 993.261L583.851 1021.05C583.851 1021.05 583.851 1023.18 583.648 1027.02C542.716 1067.85 513.709 1121.01 500.772 1179.83Z" fill="#B3E4EA"/>
</g>
<g clip-path="url(#clip0_6140_1902)">
<path d="M165.334 566.795C165.734 574.097 165.834 581.498 166.034 588.799C170.735 783.335 299.058 897.856 299.058 897.856C380.873 971.77 490.294 1019.28 606.415 1019.28C635.42 1019.28 667.326 1011.88 698.832 1000.78C771.445 981.172 837.958 943.765 892.368 894.656C892.368 894.656 1020.69 780.135 1025.39 585.599C1025.59 578.297 1025.69 570.896 1026.09 563.595C1027.89 532.089 1030.89 415.667 982.084 369.359C982.084 369.359 1044.5 275.542 986.485 188.025C960.58 148.918 919.073 122.013 872.564 115.512C831.156 109.711 777.146 118.513 736.639 183.125L702.333 163.821C702.333 163.821 727.237 113.912 667.426 97.1087C667.426 97.1087 706.733 50.4 668.326 14.8935C630.019 -20.7131 588.912 40.0981 588.912 40.0981L489.093 167.022L454.787 186.325C379.073 65.7029 256.55 139.617 256.55 139.617C119.125 236.834 209.342 372.559 209.342 372.559C160.533 418.868 163.533 535.289 165.334 566.795Z" fill="#81E9DD" stroke="#0A0A0A" stroke-width="7.50138" stroke-miterlimit="10"/>
<g style="mix-blend-mode:multiply" opacity="0.36">
<path d="M209.339 372.567C209.339 372.567 146.927 278.65 205.038 191.033C230.643 152.426 271.55 125.621 317.459 118.92C358.066 112.919 411.176 120.721 451.783 181.832C442.282 192.534 432.88 203.336 423.878 214.438C350.565 304.654 301.456 396.871 294.054 515.793C279.552 746.936 463.085 938.871 691.428 944.472C755.739 946.073 816.051 934.671 871.261 912.667C821.152 952.874 762.341 983.68 698.929 1000.78C667.423 1011.88 635.517 1019.29 606.512 1019.29C490.391 1019.29 380.97 971.777 299.155 897.864C299.155 897.864 170.832 783.343 166.131 588.807C165.931 581.506 165.831 574.104 165.431 566.803C163.63 535.297 160.63 418.876 209.439 372.567H209.339Z" fill="#68D8C9"/>
</g>
<g style="mix-blend-mode:multiply" opacity="0.36">
<path d="M420.279 206.527C420.279 206.527 353.267 133.714 277.053 191.725C277.053 191.725 205.14 233.732 242.346 345.353" fill="#68D8C9"/>
<path d="M420.279 206.527C420.279 206.527 353.267 133.714 277.053 191.725C277.053 191.725 205.14 233.732 242.346 345.353" stroke="#0A0A0A" stroke-width="7.50138" stroke-miterlimit="10"/>
</g>
<path d="M667.522 97.1282L608.811 170.342" stroke="#0A0A0A" stroke-width="7.50138" stroke-miterlimit="10"/>
<path d="M702.333 163.817C702.333 163.817 691.031 187.522 630.92 206.525L702.333 163.817Z" fill="#81E9DD"/>
<path d="M702.333 163.817C702.333 163.817 691.031 187.522 630.92 206.525" stroke="#0A0A0A" stroke-width="7.50138" stroke-miterlimit="10"/>
<path d="M903.074 836.846C979.388 683.618 994.891 517.087 951.283 352.657C958.084 334.553 962.385 315.05 963.285 294.846C966.986 212.631 899.573 141.418 821.659 126.615C878.37 114.013 930.479 145.218 930.479 145.218C1064.6 240.136 976.588 372.66 976.588 372.66C1031.9 425.17 1019 570.097 1019 570.097C1020.3 768.333 888.972 885.555 888.972 885.555C876.469 896.857 863.367 907.359 849.664 917.261C870.168 893.056 888.271 866.551 903.074 836.846Z" fill="#A8FAEF"/>
<g style="mix-blend-mode:multiply" opacity="0.36">
<path d="M775.843 206.527C775.843 206.527 842.855 133.714 919.069 191.725C919.069 191.725 990.983 233.732 953.776 345.353" fill="#68D8C9"/>
<path d="M775.843 206.527C775.843 206.527 842.855 133.714 919.069 191.725C919.069 191.725 990.983 233.732 953.776 345.353" stroke="#0A0A0A" stroke-width="7.50138" stroke-miterlimit="10"/>
</g>
<path d="M627.018 54.2041C575.809 82.2093 539.902 126.017 505.096 171.026C504.296 170.426 503.495 169.825 502.695 169.225L503.395 168.825L599.413 54.5042C599.413 54.5042 634.62 2.49459 667.426 32.9002C670.126 35.4007 672.127 37.9011 674.027 40.5016C657.624 41.9019 641.521 46.3027 627.118 54.2041H627.018Z" fill="#A8FAEF"/>
<path d="M639.574 827.93L623.404 893.625C622.999 895.343 621.281 896.556 619.361 896.556H579.641C577.72 896.556 576.003 895.343 575.598 893.625L559.427 827.93C558.922 825.707 560.539 823.585 562.965 823.281L598.945 819.542C598.945 819.542 599.551 819.542 599.854 819.542L635.835 823.281C638.26 823.483 639.979 825.707 639.373 827.93H639.574Z" fill="white" stroke="#9F9F9F" stroke-width="7.58013" stroke-miterlimit="10"/>
<path d="M596.519 824.32L600.258 886.174L604.099 824.32H596.519Z" fill="#9F9F9F"/>
<path d="M685.359 798.923C667.369 831.164 634.925 834.701 612.892 832.68C607.839 832.174 603.493 830.254 600.259 827.222V705.435C615.823 704.626 631.085 705.839 642.506 707.052C701.126 713.318 714.871 746.064 685.359 798.923Z" fill="#BBF9F0" stroke="#659F97" stroke-width="7.58013" stroke-miterlimit="10"/>
<path d="M514.451 798.923C532.441 831.164 564.885 834.701 586.918 832.68C591.971 832.174 596.317 830.254 599.551 827.222V705.435C583.987 704.626 568.725 705.839 557.304 707.052C498.684 713.318 484.939 746.064 514.451 798.923Z" fill="#BBF9F0" stroke="#659F97" stroke-width="7.58013" stroke-miterlimit="10"/>
<path d="M649.68 702.325C642.808 716.778 627.748 737.497 600.258 733.454C572.767 737.497 557.708 716.778 550.836 702.325C547.197 694.846 551.139 686.053 559.527 683.223C568.624 680.191 582.268 676.856 600.258 676.148C618.248 676.856 631.892 680.292 640.989 683.223C649.377 686.053 653.319 694.846 649.68 702.325Z" fill="#0A0A0A"/>
<path d="M620.271 705.142C615.191 705.142 611.073 701.296 611.073 696.551C611.073 691.807 615.191 687.96 620.271 687.96C625.35 687.96 629.468 691.807 629.468 696.551C629.468 701.296 625.35 705.142 620.271 705.142Z" fill="white"/>
</g>
<path d="M705.215 551.187C704.089 588.45 735.312 624.895 774.213 622.949C834.715 621.721 868.703 543.202 825.297 500.104C780.458 453.627 703.68 487.512 705.215 551.187ZM705.932 551.187C705.727 494.268 780.97 465.502 820.076 505.222C862.765 545.864 834.306 619.469 774.111 616.602C739.305 616.193 705.42 587.631 705.932 551.187Z" fill="black"/>
<path d="M840.368 551.132C840.368 587.698 810.725 617.341 774.159 617.341C737.593 617.341 707.951 587.698 707.951 551.132C707.951 514.566 737.593 484.924 774.159 484.924C810.725 484.924 840.368 514.566 840.368 551.132Z" fill="white"/>
<path d="M815.111 576.31C815.111 599.999 795.906 619.204 772.217 619.204C748.527 619.204 729.323 599.999 729.323 576.31C729.323 552.62 748.527 533.416 772.217 533.416C795.906 533.416 815.111 552.62 815.111 576.31Z" fill="black"/>
<path d="M765.358 558.248C765.358 568.425 757.108 576.675 746.931 576.675C736.754 576.675 728.504 568.425 728.504 558.248C728.504 548.071 736.754 539.821 746.931 539.821C757.108 539.821 765.358 548.071 765.358 558.248Z" fill="white"/>
<path d="M784.45 359.747C784.45 359.747 859.591 359.747 889.791 428.336" stroke="black" stroke-width="10.2372" stroke-miterlimit="10"/>
<path d="M407.719 349.511C407.719 349.511 332.578 349.511 302.378 418.1" stroke="black" stroke-width="10.2372" stroke-miterlimit="10"/>
<path d="M364.42 557.345C363.294 594.608 394.517 631.052 433.418 629.107C493.92 627.879 527.907 549.36 484.502 506.262C439.663 459.785 362.884 493.67 364.42 557.345ZM365.239 557.345C365.034 500.426 440.277 471.66 479.383 511.38C522.072 552.022 493.613 625.627 433.418 622.76C398.612 622.351 364.727 593.789 365.239 557.345Z" fill="black"/>
<path d="M500.345 557.34C500.345 594.303 470.381 624.267 433.418 624.267C396.455 624.267 366.491 594.303 366.491 557.34C366.491 520.377 396.455 490.413 433.418 490.413C470.381 490.413 500.345 520.377 500.345 557.34Z" fill="white"/>
<path d="M474.248 582.714C474.248 606.404 455.044 625.608 431.354 625.608C407.665 625.608 388.46 606.404 388.46 582.714C388.46 559.025 407.665 539.821 431.354 539.821C455.044 539.821 474.248 559.025 474.248 582.714Z" fill="black"/>
<path d="M424.996 564.652C424.996 574.829 416.746 583.079 406.569 583.079C396.393 583.079 388.143 574.829 388.143 564.652C388.143 554.476 396.393 546.225 406.569 546.225C416.746 546.225 424.996 554.476 424.996 564.652Z" fill="white"/>
<path d="M1054.83 925.495C1090.02 908.912 1126.65 965.537 1137.6 983.402C1139.29 979.693 1145.18 962.264 1155.3 922.222C1167.94 872.168 1169.96 836.271 1185.63 814.025C1198.17 796.229 1218.49 801.217 1227.09 805.936C1241.82 814.025 1240.91 838.224 1231.13 874.696C1223.65 902.614 1217.82 927.783 1219.51 937.389C1229.21 935.367 1247.76 896.647 1259.04 870.653C1268.65 848.516 1276.94 822.832 1288.27 811.103C1299.59 799.373 1308.83 801.05 1316.58 803.41C1333.77 809.477 1354.09 823.742 1333.26 870.653C1313.73 914.658 1291.64 949.02 1288.27 963.682L1326.28 937.389C1344.48 922.222 1374.15 906.153 1389.89 929.808C1412.43 963.682 1355.2 1006.87 1326.28 1020.42C1326.28 1037.61 1331.33 1061.8 1306.57 1093.73C1264.6 1147.83 1189.77 1126.08 1161.46 1111.42C1107.36 1083.41 1108.94 1055.27 1097.48 1038.93C1086.99 1029.8 1078.48 1021.46 1071.47 1014.41C1056.14 998.987 1037.49 982.772 1034.97 961.178C1033.42 947.875 1037.15 933.829 1054.83 925.495Z" fill="#81E9DD" stroke="black" stroke-width="7.57579"/>
<path d="M1136.83 986.318C1152.84 976.375 1188.06 962.987 1214.14 990.893" stroke="black" stroke-width="7.57579"/>
<path d="M1299.89 987.948C1285.57 970.758 1240.94 935.67 1177.04 932.839" stroke="#549891" stroke-width="7.57579"/>
<defs>
<clipPath id="clip0_6140_1902">
<rect width="869.86" height="1023.09" fill="white" transform="matrix(-1 0 0 1 1030.69 0)"/>
</clipPath>
</defs>
</svg>
