<svg width="1628" height="2786" viewBox="0 0 1628 2786" fill="none" xmlns="http://www.w3.org/2000/svg">
<ellipse cx="542.35" cy="2676.23" rx="534.331" ry="108.879" fill="#F3F3F3"/>
<path d="M206.921 1845.53C206.921 1845.53 51.1743 2338.34 202.272 2361.89C202.272 2361.89 253.715 2370.18 271.706 2327.33C289.696 2284.47 206.921 1845.53 206.921 1845.53Z" fill="#81E9DD" stroke="#0A0A0A" stroke-width="7.58013" stroke-miterlimit="10"/>
<g style="mix-blend-mode:multiply" opacity="0.36">
<path d="M232.089 2253.24C226.227 2195.84 218.141 2143.89 197.523 2090.52C191.661 2075.26 185.092 2060.2 179.634 2044.74C172.155 2023.51 168.213 1963.28 171.852 2031.8C171.144 2019.27 169.426 2007.14 167.203 1995.22C186.204 1910.92 206.821 1845.53 206.821 1845.53C206.821 1845.53 289.698 2284.37 271.606 2327.33C263.218 2347.44 247.451 2356.23 232.998 2359.97C235.929 2324.7 235.626 2289.02 231.988 2253.24H232.089Z" fill="#5AD8C5"/>
</g>
<path d="M206.821 1775.5C202.98 1783.89 201.565 1793.08 202.576 1802.18L240.982 2183.21C240.982 2183.21 265.138 2416.27 261.701 2431.84C258.265 2447.4 265.137 2538.87 240.982 2568.18C216.827 2597.49 208.236 2689.06 261.701 2704.52C278.074 2709.27 309.405 2714.02 346.194 2716.85C395.415 2720.59 454.742 2720.69 501.638 2712.61C523.367 2708.87 542.368 2703.31 556.619 2695.52C569.657 2688.45 584.817 2686.63 598.865 2691.28C615.845 2696.84 640.91 2703.81 671.534 2708.76C707.817 2714.63 751.984 2717.76 800.194 2712.5C818.992 2710.48 838.398 2707.15 858.106 2702.3C876.702 2697.65 890.953 2682.79 895.501 2664.19C898.028 2653.88 900.959 2640.54 904.092 2623.46C913.896 2570.6 801.103 2516.53 812.12 2480.05C822.631 2445.48 896.108 2218.99 903.991 2194.63C904.395 2193.21 904.9 2192 905.406 2190.69C912.986 2172.6 974.84 2020.79 989.09 1821.28C1004.05 1612.78 312.033 1544.25 206.619 1775.4L206.821 1775.5Z" fill="#81E9DD" stroke="#0A0A0A" stroke-width="7.58013" stroke-miterlimit="10"/>
<path d="M886.002 2154.71C881.15 2169.57 835.265 2289.64 834.76 2264.97C833.345 2189.98 843.25 2116.4 869.426 2046.77C882.767 2011.29 897.827 1976.42 913.391 1941.86C920.062 1927 934.413 1899.41 943.51 1882.03C945.329 1878.59 950.584 1880.11 950.281 1884.05C937.142 2029.28 892.773 2138.24 887.113 2151.58C886.709 2152.59 886.305 2153.6 886.002 2154.61V2154.71Z" fill="#BBF9F0"/>
<g style="mix-blend-mode:multiply" opacity="0.36">
<path d="M217.03 1777.93C224.004 1802.99 233.807 1827.35 245.834 1850.6C291.315 2000.18 300.512 2160.98 301.725 2317.03C301.523 2318.75 301.321 2320.36 301.119 2322.08C294.246 2370.9 312.236 2419.51 364.59 2433.96C382.277 2438.81 401.783 2437.4 419.672 2431.03C454.642 2421.73 483.851 2393.64 483.75 2346.74C483.75 2342.9 483.75 2338.96 483.75 2335.12C497.293 2269.83 513.464 2200.19 539.64 2140.97C555.912 2104.08 578.148 2070.02 602.202 2037.27C650.108 2020.49 684.168 1982.39 707.515 1935.59C700.744 1966.12 692.254 1999.47 681.743 2029.29C648.996 2122.98 636.969 2221.72 643.033 2322.08C646.167 2374.23 655.061 2425.47 668.301 2475.91C674.567 2499.66 680.833 2523.31 685.785 2547.46C687.099 2553.73 693.972 2603.35 693.871 2597.09C697.307 2635.59 698.621 2674 698.419 2712.41C689.121 2711.4 680.125 2710.28 671.737 2708.87C641.113 2703.92 616.048 2696.94 599.069 2691.38C584.919 2686.74 569.86 2688.55 556.822 2695.63C551.668 2698.46 545.704 2700.89 539.438 2703.11C540.651 2695.53 541.561 2687.95 541.864 2680.17C546.412 2577.48 451.206 2490.06 351.754 2490.06C316.684 2490.06 284.746 2499.56 257.356 2515.93C261.5 2480.66 259.58 2441.54 261.803 2431.84C265.24 2416.28 241.084 2183.21 241.084 2183.21L202.678 1802.18C201.769 1792.99 203.285 1783.69 207.024 1775.3C210.359 1776.31 213.796 1777.02 217.131 1777.83L217.03 1777.93Z" fill="#5AD8C5"/>
</g>
<path d="M707.312 1935.59C707.312 1935.59 658.193 2021.09 590.174 2037.67" stroke="#0A0A0A" stroke-width="7.58013" stroke-miterlimit="10"/>
<path d="M613.217 2029.2C613.217 2029.2 543.479 2355.34 555.709 2456.11C567.938 2556.87 604.626 2622.97 564.097 2692.31" stroke="#0A0A0A" stroke-width="7.58013" stroke-miterlimit="10"/>
<path d="M340.738 2609.9C340.738 2609.9 306.476 2659.93 322.04 2714.71L340.738 2609.9Z" fill="#81E9DD"/>
<path d="M340.738 2609.9C340.738 2609.9 306.476 2659.93 322.04 2714.71" stroke="#0A0A0A" stroke-width="7.58013" stroke-miterlimit="10"/>
<path d="M811.311 2609.9C811.311 2609.9 831.222 2685.3 800.194 2712.58L811.311 2609.9Z" fill="#81E9DD"/>
<path d="M811.311 2609.9C811.311 2609.9 831.222 2685.3 800.194 2712.58" stroke="#0A0A0A" stroke-width="7.58013" stroke-miterlimit="10"/>
<path d="M697.609 2618.31C697.609 2618.31 722.472 2675.41 698.317 2712.3L697.609 2618.31Z" fill="#81E9DD"/>
<path d="M697.609 2618.31C697.609 2618.31 722.472 2675.41 698.317 2712.3" stroke="#0A0A0A" stroke-width="7.58013" stroke-miterlimit="10"/>
<path d="M467.782 2633.47C467.782 2633.47 482.336 2677.64 467.782 2719.38V2633.47Z" fill="#81E9DD"/>
<path d="M467.782 2633.47C467.782 2633.47 482.336 2677.64 467.782 2719.38" stroke="#0A0A0A" stroke-width="7.58013" stroke-miterlimit="10"/>
<path d="M171.649 1681.8C169.224 1688.47 165.888 1695.64 161.34 1703.22C161.34 1703.22 153.963 1719.5 158.915 1749.31C163.867 1779.13 155.276 1797.22 135.871 1803.99C135.871 1803.99 133.749 1821.27 150.526 1843.51C162.958 1859.88 171.144 1879.39 171.043 1899.9C171.043 1902.53 170.942 1905.16 170.74 1907.99C169.426 1925.88 156.691 1933.46 144.361 1936.49C127.988 1940.63 110.705 1936.79 96.6567 1927.49C83.7199 1919 67.1447 1903.95 51.3781 1877.67C18.834 1823.39 2.05661 1763.26 19.7436 1647.43C32.0739 1566.78 102.721 1590.63 144.462 1612.46C169.527 1625.6 181.453 1655.11 171.75 1681.7L171.649 1681.8Z" fill="#81E9DD" stroke="#0A0A0A" stroke-width="7.58013" stroke-miterlimit="10"/>
<g style="mix-blend-mode:multiply" opacity="0.36">
<path d="M19.6426 1647.55C28.4355 1589.94 67.0435 1585.6 103.529 1595.91C71.8948 1636.44 52.5908 1687.37 50.1651 1741.95C46.6277 1819.98 89.6829 1890.72 151.84 1933.98C149.414 1934.99 146.888 1935.9 144.361 1936.61C127.988 1940.75 110.705 1936.91 96.6567 1927.61C83.7199 1919.12 67.1447 1904.06 51.3781 1877.79C18.834 1823.51 2.05661 1763.38 19.7436 1647.55H19.6426Z" fill="#5AD8C5"/>
</g>
<path d="M84.7312 1685.45C84.7312 1685.45 64.1134 1797.13 135.872 1804.1L84.7312 1685.45Z" fill="#81E9DD"/>
<path d="M84.7312 1685.45C84.7312 1685.45 64.1134 1797.13 135.872 1804.1" stroke="#0A0A0A" stroke-width="7.58013" stroke-miterlimit="10"/>
<path d="M163.564 1865.77C163.564 1865.77 175.996 1920.95 130.313 1919.74C84.6297 1918.53 41.8777 1859.81 29.5474 1833.73" stroke="#0A0A0A" stroke-width="7.58013" stroke-miterlimit="10"/>
<path d="M1130.99 1076.83L1063.98 1161.72C1063.98 1161.72 970.19 960.699 836.173 940.587C702.156 920.474 237.544 848.513 237.544 848.513C237.544 848.513 81.1916 833.353 168.313 1096.94C168.313 1096.94 60.4726 1232.37 19.3378 1520.92C19.3378 1520.92 -9.1636 1638.36 12.465 1668.08C12.465 1668.08 87.761 1644.12 135.667 1653.22C183.574 1662.32 191.356 1667.88 205.809 1652.71C206.011 1652.51 206.314 1652.61 206.213 1652.71C204.697 1658.27 195.803 1694.35 206.618 1719.42C206.618 1719.42 164.674 1784.71 210.155 1840.1C221.576 1854.04 238.05 1862.94 255.838 1865.67C280.296 1869.41 323.25 1873.75 380.354 1870.42C472.225 1864.96 634.642 1868.6 683.054 1854.95C731.466 1841.31 879.733 1851.31 879.733 1851.31C879.733 1851.31 988.887 1864.96 994.345 1812.2C999.803 1759.44 991.616 1724.98 991.616 1724.98C991.616 1724.98 1000 1642.51 990.909 1604.81C990.1 1601.57 993.334 1598.85 996.366 1600.06C1019.51 1609.05 1088.24 1616.23 1173.54 1445.63C1279.05 1234.59 1280.67 1120.69 1280.67 1120.69C1280.67 1120.69 1193.05 1094.01 1130.99 1076.62V1076.83Z" fill="#FFE400" stroke="black" stroke-width="7.58013" stroke-miterlimit="10"/>
<g style="mix-blend-mode:multiply" opacity="0.25">
<path d="M900.452 1304.4C901.059 1264.07 891.76 1225.47 874.781 1190.39C867.201 1151.38 869.323 1113.99 866.494 1074.37C863.158 1027.07 845.673 986.034 836.678 940.655C970.392 961.171 1063.98 1161.69 1063.98 1161.69L1087.93 1131.37C1038.11 1252.96 1014.05 1385.86 1015.37 1516.14C1015.67 1546.96 1021.73 1575.97 1032.35 1602.35C1016.28 1605.79 1003.95 1603.16 996.467 1600.23C994.446 1599.42 992.425 1600.43 991.515 1602.15C989.494 1594.26 987.472 1586.38 985.148 1578.7C973.02 1537.16 952.503 1498.65 939.667 1457.42C930.268 1427.2 923.193 1397.89 911.064 1369.08C910.458 1346.85 906.82 1325.22 900.452 1304.5V1304.4Z" fill="#D6B800"/>
</g>
<g style="mix-blend-mode:multiply" opacity="0.25">
<path d="M168.212 1096.94C167.302 1094.31 166.594 1091.78 165.786 1089.26C207.931 1038.42 233.704 973.129 236.938 902.886C237.747 884.289 236.433 866.097 233.198 848.309C235.826 848.309 237.443 848.41 237.443 848.41C237.443 848.41 365.901 868.321 507.195 890.05C482.736 915.823 462.118 946.244 444.937 975.958C425.835 1008.91 408.148 1043.67 395.211 1079.65C377.827 1122.91 368.226 1167.28 368.529 1208.62C368.832 1249.15 383.285 1285.23 407.036 1315.85C423.308 1343.24 444.937 1366.28 470.002 1385.69C393.695 1438.25 344.475 1527.39 340.028 1626.13C335.581 1725.18 392.179 1814.93 472.832 1867.48C439.075 1868.19 406.733 1869 380.354 1870.52C326.282 1873.75 284.844 1870.01 259.881 1866.37C237.949 1863.24 217.735 1851.82 205.203 1833.63C167.908 1779.76 206.618 1719.52 206.618 1719.52C194.793 1692.23 206.415 1652.01 206.415 1652.01C191.558 1667.97 183.574 1662.31 135.667 1653.12C87.7611 1644.02 12.465 1667.97 12.465 1667.97C-9.1636 1638.36 19.3378 1520.82 19.3378 1520.82C60.3716 1232.27 168.313 1096.84 168.313 1096.84L168.212 1096.94Z" fill="#D6B800"/>
</g>
<g style="mix-blend-mode:multiply" opacity="0.25">
<path d="M400.772 1739.94C427.252 1748.84 648.693 1742.87 648.693 1742.87C747.538 1752.98 965.441 1725.08 965.441 1725.08" stroke="#AB8F00" stroke-width="10.1068" stroke-miterlimit="10"/>
</g>
<path d="M378.536 950.587C378.536 950.587 284.744 931.283 168.212 1096.93L378.536 950.587Z" fill="#FFE400"/>
<path d="M378.536 950.587C378.536 950.587 284.744 931.283 168.212 1096.93" stroke="black" stroke-width="7.58013" stroke-miterlimit="10"/>
<path d="M314.258 1116.02C314.258 1116.02 308.598 1202.74 302.029 1221.03C297.177 1234.57 274.336 1327.46 273.325 1344.33C272.011 1365.76 242.6 1514.84 227.44 1546.88C212.28 1578.91 206.317 1651.99 206.317 1651.99" fill="#FFE400"/>
<path d="M314.258 1116.02C314.258 1116.02 308.598 1202.74 302.029 1221.03C297.177 1234.57 274.336 1327.46 273.325 1344.33C272.011 1365.76 242.6 1514.84 227.44 1546.88C212.28 1578.91 206.317 1651.99 206.317 1651.99" stroke="black" stroke-width="7.58013" stroke-miterlimit="10"/>
<path d="M843.049 994.626C843.049 994.626 866.901 1075.68 865.89 1147.14C865.89 1147.14 903.993 1272.97 919.254 1386.47C919.254 1386.47 935.425 1470.36 961.198 1510.38C986.97 1550.4 991.114 1605.69 991.114 1605.69" stroke="black" stroke-width="7.58013" stroke-miterlimit="10"/>
<path d="M685.179 1010.31C685.179 1010.31 695.286 1234.48 741.272 1251.36C771.188 1262.38 779.071 1240.85 780.992 1224.48C781.901 1216.8 781.396 1209.01 780.082 1201.43L744.405 994.547" fill="white"/>
<path d="M685.179 1010.31C685.179 1010.31 695.286 1234.48 741.272 1251.36C771.188 1262.38 779.071 1240.85 780.992 1224.48C781.901 1216.8 781.396 1209.01 780.082 1201.43L744.405 994.547" stroke="black" stroke-width="7.58013" stroke-miterlimit="10"/>
<g style="mix-blend-mode:multiply">
<path d="M694.983 1098.73C694.275 1099.13 693.467 1099.43 692.759 1099.84C686.998 1051.43 685.179 1010.29 685.179 1010.29L744.405 994.626L749.964 1026.77C728.234 1047.69 709.739 1071.94 695.084 1098.73H694.983Z" fill="#B3E4EA"/>
</g>
<path d="M584.211 1021.97C584.211 1021.97 579.966 1158.51 559.247 1223.3C554.699 1237.45 549.746 1252.61 536.102 1258.47C522.458 1264.33 502.952 1261.2 500.829 1233.4C496.18 1172.86 519.426 994.176 519.426 994.176" fill="white"/>
<path d="M584.211 1021.97C584.211 1021.97 579.966 1158.51 559.247 1223.3C554.699 1237.45 549.746 1252.61 536.102 1258.47C522.458 1264.33 502.952 1261.2 500.829 1233.4C496.18 1172.86 519.426 994.176 519.426 994.176" stroke="black" stroke-width="7.58013" stroke-miterlimit="10"/>
<g style="mix-blend-mode:multiply">
<path d="M501.133 1180.75C505.074 1104.14 519.325 994.176 519.325 994.176L584.211 1021.97C584.211 1021.97 584.211 1024.09 584.009 1027.93C543.076 1068.76 514.07 1121.93 501.133 1180.75Z" fill="#B3E4EA"/>
</g>
<path d="M1095.72 1055.8C1082.88 1012.84 1092.58 966.249 1119.77 930.572C1135.34 910.257 1158.38 886.203 1192.74 859.925C1296.34 780.687 1282.49 854.366 1276.83 862.755C1271.17 871.143 1233.68 940.678 1233.68 940.678C1233.68 940.678 1308.77 1141.6 1250.35 1158.99C1191.93 1176.37 1140.29 1132.51 1130.08 1111.69C1122.8 1096.93 1105.82 1089.86 1095.62 1055.8H1095.72Z" fill="#81E9DD" stroke="#0A0A0A" stroke-width="7.58013" stroke-miterlimit="10"/>
<path d="M1303.21 1089.34C1303.21 1089.34 1317.46 1133.31 1270.06 1145.13C1248.74 1150.49 1225.69 1147.05 1207.4 1134.92C1189.11 1122.8 1175.36 1101.98 1199.52 1066.4" fill="#81E9DD"/>
<path d="M1303.21 1089.34C1303.21 1089.34 1317.46 1133.31 1270.06 1145.13C1248.74 1150.49 1225.69 1147.05 1207.4 1134.92C1189.11 1122.8 1175.36 1101.98 1199.52 1066.4" stroke="#0A0A0A" stroke-width="7.58013" stroke-miterlimit="10"/>
<path d="M1319.48 1007.18C1319.48 1007.18 1369.82 1033.76 1328.28 1072.78C1311.9 1088.14 1290.17 1096.63 1267.74 1097.54C1243.48 1098.45 1210.74 1093.7 1187.79 1066.81C1187.79 1066.81 1167.28 1042.76 1211.14 1026.28" fill="#81E9DD"/>
<path d="M1319.48 1007.18C1319.48 1007.18 1369.82 1033.76 1328.28 1072.78C1311.9 1088.14 1290.17 1096.63 1267.74 1097.54C1243.48 1098.45 1210.74 1093.7 1187.79 1066.81C1187.79 1066.81 1167.28 1042.76 1211.14 1026.28" stroke="#0A0A0A" stroke-width="7.58013" stroke-miterlimit="10"/>
<path d="M1233.78 940.651L1595.8 65.7013L1622.99 77.122L1290.48 960.157L1233.78 940.651Z" fill="#E59F80" stroke="#0A0A0A" stroke-width="7.58013" stroke-miterlimit="10"/>
<path d="M1182.74 982.119C1182.74 982.119 1221.65 926.43 1303.41 929.058C1385.18 931.685 1344.55 990.709 1325.55 1003.75C1306.55 1016.79 1210.03 1046.9 1182.74 1010.82C1182.74 1010.82 1170.61 998.188 1182.74 982.119Z" fill="#81E9DD" stroke="#0A0A0A" stroke-width="7.58013" stroke-miterlimit="10"/>
<g clip-path="url(#clip0_6140_1607)">
<path d="M1030.75 566.795C1030.35 574.096 1030.25 581.498 1030.05 588.799C1025.35 783.335 897.026 897.856 897.026 897.856C815.211 971.77 705.791 1019.28 589.669 1019.28C560.664 1019.28 528.758 1011.88 497.252 1000.78C424.639 981.172 358.127 943.765 303.717 894.656C303.717 894.656 175.393 780.134 170.692 585.599C170.492 578.297 170.392 570.896 169.992 563.595C168.192 532.089 165.191 415.667 214 369.359C214 369.359 151.588 275.541 209.599 188.025C235.504 148.918 277.012 122.013 323.52 115.512C364.928 109.711 418.938 118.512 459.445 183.124L493.752 163.821C493.752 163.821 468.847 113.912 528.658 97.1085C528.658 97.1085 489.351 50.3999 527.758 14.8934C566.065 -20.7132 607.172 40.098 607.172 40.098L706.991 167.021L741.297 186.325C817.011 65.7027 939.534 139.616 939.534 139.616C1076.96 236.834 986.742 372.559 986.742 372.559C1035.55 418.868 1032.55 535.289 1030.75 566.795Z" fill="#81E9DD" stroke="#0A0A0A" stroke-width="7.50138" stroke-miterlimit="10"/>
<g style="mix-blend-mode:multiply" opacity="0.36">
<path d="M986.745 372.567C986.745 372.567 1049.16 278.65 991.046 191.033C965.441 152.426 924.534 125.621 878.625 118.92C838.018 112.919 784.908 120.72 744.301 181.832C753.802 192.534 763.204 203.336 772.206 214.438C845.519 304.654 894.628 396.871 902.03 515.793C916.532 746.936 732.999 938.871 504.656 944.472C440.345 946.073 380.033 934.671 324.823 912.667C374.932 952.874 433.743 983.68 497.155 1000.78C528.661 1011.88 560.567 1019.29 589.572 1019.29C705.693 1019.29 815.114 971.777 896.929 897.864C896.929 897.864 1025.25 783.343 1029.95 588.807C1030.15 581.505 1030.25 574.104 1030.65 566.803C1032.45 535.297 1035.45 418.875 986.645 372.567H986.745Z" fill="#68D8C9"/>
</g>
<g style="mix-blend-mode:multiply" opacity="0.36">
<path d="M775.805 206.527C775.805 206.527 842.818 133.714 919.032 191.724C919.032 191.724 990.945 233.732 953.738 345.353" fill="#68D8C9"/>
<path d="M775.805 206.527C775.805 206.527 842.818 133.714 919.032 191.724C919.032 191.724 990.945 233.732 953.738 345.353" stroke="#0A0A0A" stroke-width="7.50138" stroke-miterlimit="10"/>
</g>
<path d="M528.562 97.1281L587.273 170.342" stroke="#0A0A0A" stroke-width="7.50138" stroke-miterlimit="10"/>
<path d="M493.751 163.817C493.751 163.817 505.053 187.522 565.164 206.525L493.751 163.817Z" fill="#81E9DD"/>
<path d="M493.751 163.817C493.751 163.817 505.053 187.522 565.164 206.525" stroke="#0A0A0A" stroke-width="7.50138" stroke-miterlimit="10"/>
<path d="M293.01 836.846C216.696 683.618 201.193 517.087 244.801 352.657C238 334.553 233.699 315.05 232.799 294.846C229.098 212.631 296.511 141.418 374.425 126.615C317.715 114.013 265.605 145.218 265.605 145.218C131.48 240.136 219.497 372.66 219.497 372.66C164.186 425.17 177.089 570.097 177.089 570.097C175.788 768.333 307.113 885.555 307.113 885.555C319.615 896.857 332.717 907.359 346.42 917.261C325.916 893.056 307.813 866.551 293.01 836.846Z" fill="#A8FAEF"/>
<g style="mix-blend-mode:multiply" opacity="0.36">
<path d="M420.241 206.527C420.241 206.527 353.229 133.714 277.015 191.724C277.015 191.724 205.101 233.732 242.308 345.353" fill="#68D8C9"/>
<path d="M420.241 206.527C420.241 206.527 353.229 133.714 277.015 191.724C277.015 191.724 205.101 233.732 242.308 345.353" stroke="#0A0A0A" stroke-width="7.50138" stroke-miterlimit="10"/>
</g>
<path d="M569.066 54.204C620.276 82.2092 656.182 126.017 690.989 171.026C691.789 170.425 692.589 169.825 693.389 169.225L692.689 168.825L596.671 54.5041C596.671 54.5041 561.465 2.49447 528.659 32.9001C525.958 35.4005 523.958 37.901 522.058 40.5015C538.461 41.9017 554.564 46.3025 568.966 54.204H569.066Z" fill="#A8FAEF"/>
</g>
<path d="M692.254 834.025C692.254 834.025 680.833 904.874 666.785 915.284C666.785 915.284 629.895 925.694 619.384 921.55L610.995 846.557L666.785 814.316L692.254 834.126V834.025Z" fill="white" stroke="#9F9F9F" stroke-width="7.58013" stroke-miterlimit="10"/>
<path d="M663.955 825.06C663.955 825.06 666.077 880.547 645.257 917.74L663.955 825.06Z" fill="white"/>
<path d="M669.008 824.938C667.492 857.179 661.934 890.027 645.257 917.82C658.598 889.117 660.721 856.27 658.902 825.343L669.008 824.938Z" fill="#9F9F9F"/>
<path d="M625.044 716.385C625.044 716.385 524.177 709.916 530.848 803.404C536.609 884.057 635.353 874.355 670.322 832.815C670.322 832.815 722.878 852.625 744.911 802.293C766.944 751.961 734.097 718.204 709.133 712.039C684.169 705.873 633.331 715.374 625.145 716.385H625.044Z" fill="#BBF9F0" stroke="#659F97" stroke-width="7.58013" stroke-miterlimit="10"/>
<path d="M675.576 787.772C676.789 760.888 670.826 735.217 659.708 711.87C678.507 709.849 699.933 708.838 713.982 712.274C741.472 719.147 777.554 756.138 753.297 811.523C737.834 846.999 706.907 850.233 686.794 848.009C676.081 846.796 668.4 836.993 670.32 826.38C672.443 814.454 675.07 798.789 675.576 787.772Z" fill="#BBF9F0" stroke="#659F97" stroke-width="7.58013" stroke-miterlimit="10"/>
<path d="M697.914 689.619C707.616 691.135 713.276 701.545 709.537 710.54C703.978 723.881 691.85 741.063 665.471 748.138C634.342 756.526 617.868 732.27 610.388 715.695C606.75 707.609 610.793 698.109 619.08 695.077C633.836 689.72 660.316 683.757 697.813 689.619H697.914Z" fill="#0A0A0A"/>
<path d="M685.179 717.903C690.259 717.903 694.377 713.785 694.377 708.705C694.377 703.626 690.259 699.508 685.179 699.508C680.1 699.508 675.982 703.626 675.982 708.705C675.982 713.785 680.1 717.903 685.179 717.903Z" fill="white"/>
<path d="M470.361 638.067C508.241 638.067 538.949 607.358 538.949 569.478C538.949 531.597 508.241 500.889 470.361 500.889C432.48 500.889 401.771 531.597 401.771 569.478C401.771 607.358 432.48 638.067 470.361 638.067Z" fill="white"/>
<path d="M539.255 569.482C540.381 606.746 509.158 643.19 470.257 641.245C409.755 640.016 375.768 561.497 419.174 518.399C464.012 471.922 540.791 505.807 539.255 569.482ZM538.539 569.482C538.744 512.564 463.5 483.797 424.394 523.518C381.706 564.159 410.165 637.764 470.36 634.898C505.166 634.488 539.051 605.927 538.539 569.482Z" fill="black"/>
<path d="M496.058 610.429C519.747 610.429 538.951 591.225 538.951 567.536C538.951 543.846 519.747 524.642 496.058 524.642C472.368 524.642 453.164 543.846 453.164 567.536C453.164 591.225 472.368 610.429 496.058 610.429Z" fill="black"/>
<path d="M517.659 587.171C527.835 587.171 536.085 578.921 536.085 568.745C536.085 558.568 527.835 550.318 517.659 550.318C507.482 550.318 499.231 558.568 499.231 568.745C499.231 578.921 507.482 587.171 517.659 587.171Z" fill="white"/>
<path d="M836.852 378.046C836.852 378.046 911.993 378.046 942.192 446.635" stroke="black" stroke-width="10.2372" stroke-miterlimit="10"/>
<path d="M460.126 367.81C460.126 367.81 384.985 367.81 354.785 436.399" stroke="black" stroke-width="10.2372" stroke-miterlimit="10"/>
<path d="M811.056 644.107C848.937 644.107 879.645 613.399 879.645 575.518C879.645 537.637 848.937 506.929 811.056 506.929C773.176 506.929 742.467 537.637 742.467 575.518C742.467 613.399 773.176 644.107 811.056 644.107Z" fill="white"/>
<path d="M880.053 575.522C881.179 612.786 849.956 649.23 811.055 647.285C750.553 646.056 716.566 567.537 759.971 524.439C804.81 477.962 881.589 511.847 880.053 575.522ZM879.234 575.522C879.439 518.604 804.196 489.837 765.09 529.558C722.401 570.199 750.86 643.804 811.055 640.938C845.861 640.528 879.746 611.967 879.234 575.522Z" fill="black"/>
<path d="M836.854 616.469C860.543 616.469 879.747 597.265 879.747 573.576C879.747 549.886 860.543 530.682 836.854 530.682C813.164 530.682 793.96 549.886 793.96 573.576C793.96 597.265 813.164 616.469 836.854 616.469Z" fill="black"/>
<path d="M858.249 592.007C868.425 592.007 876.675 583.757 876.675 573.58C876.675 563.403 868.425 555.153 858.249 555.153C848.072 555.153 839.822 563.403 839.822 573.58C839.822 583.757 848.072 592.007 858.249 592.007Z" fill="white"/>
<defs>
<clipPath id="clip0_6140_1607">
<rect width="869.86" height="1023.09" fill="white" transform="translate(165.391)"/>
</clipPath>
</defs>
</svg>
