<svg width="1804" height="2402" viewBox="0 0 1804 2402" fill="none" xmlns="http://www.w3.org/2000/svg">
<path d="M861.087 1117.52C1045.85 1117.52 1195.62 1031.46 1195.62 925.289C1195.62 819.123 1045.85 733.057 861.087 733.057C676.327 733.057 526.55 819.123 526.55 925.289C526.55 1031.46 676.327 1117.52 861.087 1117.52Z" fill="#FFE400" stroke="black" stroke-width="7.58013" stroke-miterlimit="10"/>
<ellipse cx="902.043" cy="2273.19" rx="901.683" ry="128.551" fill="#F3F3F3"/>
<path d="M610.403 937.01C610.403 937.01 486.393 938.93 346.817 1249.01C207.242 1559.09 337.114 1638.53 337.114 1638.53C337.114 1638.53 402.303 1696.64 446.268 1694.72C490.233 1692.8 1234.3 1694.72 1234.3 1694.72C1234.3 1694.72 1369.93 1694.72 1404.8 1566.77C1439.67 1438.81 1348.61 1196.65 1325.36 1154C1302.12 1111.35 1203.27 964.096 1098.66 944.691C994.059 925.286 610.302 936.909 610.302 936.909L610.403 937.01Z" fill="#FFE400" stroke="black" stroke-width="7.58013" stroke-miterlimit="10"/>
<g style="mix-blend-mode:multiply" opacity="0.25">
<path d="M1325.5 1154.13C1302.25 1111.47 1203.4 964.218 1098.8 944.813C994.193 925.408 610.436 937.03 610.436 937.03C610.436 937.03 601.138 937.233 584.866 943.701C588.808 955.526 594.164 968.159 595.377 979.58C595.579 980.086 595.68 980.389 595.781 980.793C598.207 985.948 600.633 991.203 603.261 996.257C614.277 1017.28 626.91 1037.39 640.656 1056.8C640.959 1056.8 652.077 1071.15 657.029 1076.71C666.429 1087.32 676.131 1097.73 686.036 1107.84C757.592 1180.5 836.729 1227.91 927.892 1272.17C986.714 1300.78 1062.82 1340.09 1086.67 1405.38C1122.15 1454.7 1148.93 1511.3 1166.62 1571.34C1201.79 1464.3 1287.09 1393.05 1391.29 1345.95C1369.66 1256.81 1337.83 1176.76 1325.39 1153.92L1325.5 1154.13Z" fill="#D6B800"/>
</g>
<path d="M724.745 993.133C724.745 993.133 693.111 1215.28 735.257 1240.45C762.646 1256.82 774.37 1237.11 779.221 1221.45C781.445 1214.07 782.455 1206.39 782.556 1198.6L785.791 988.686" fill="white"/>
<path d="M724.745 993.133C724.745 993.133 693.111 1215.28 735.257 1240.45C762.646 1256.82 774.37 1237.11 779.221 1221.45C781.445 1214.07 782.455 1206.39 782.556 1198.6L785.791 988.686" stroke="black" stroke-width="7.58013" stroke-miterlimit="10"/>
<g style="mix-blend-mode:multiply">
<path d="M717.974 1081.87C717.165 1082.07 716.357 1082.28 715.548 1082.48C718.884 1033.86 724.644 993.133 724.644 993.133L785.69 988.686L785.185 1021.33C760.019 1037.91 737.278 1058.32 717.873 1081.87H717.974Z" fill="#B3E4EA"/>
</g>
<path d="M929.206 993.133C929.206 993.133 897.572 1215.28 939.717 1240.45C967.107 1256.82 978.83 1237.11 983.682 1221.45C985.905 1214.07 986.916 1206.39 987.017 1198.6L990.251 988.686" fill="white"/>
<path d="M929.206 993.133C929.206 993.133 897.572 1215.28 939.717 1240.45C967.107 1256.82 978.83 1237.11 983.682 1221.45C985.905 1214.07 986.916 1206.39 987.017 1198.6L990.251 988.686" stroke="black" stroke-width="7.58013" stroke-miterlimit="10"/>
<g style="mix-blend-mode:multiply">
<path d="M922.435 1081.87C921.626 1082.07 920.818 1082.28 920.009 1082.48C923.345 1033.86 929.106 993.133 929.106 993.133L990.151 988.686L989.646 1021.33C964.48 1037.91 941.739 1058.32 922.334 1081.87H922.435Z" fill="#B3E4EA"/>
</g>
<path d="M601.34 1105.19C601.34 1105.19 549.492 1263.97 539.891 1332.79L601.34 1105.19Z" fill="#FFE400"/>
<path d="M601.34 1105.19C601.34 1105.19 549.492 1263.97 539.891 1332.79" stroke="black" stroke-width="7.58013" stroke-miterlimit="10"/>
<g opacity="0.61">
<path d="M1104.96 1035.55C1104.96 1035.55 1120.83 1134.49 1144.79 1196.85C1149.64 1209.59 1154.08 1222.42 1157.42 1235.66C1165.1 1266.49 1177.63 1319.25 1176.22 1332.79" fill="#FFE400"/>
<path d="M1104.96 1035.55C1104.96 1035.55 1120.83 1134.49 1144.79 1196.85C1149.64 1209.59 1154.08 1222.42 1157.42 1235.66C1165.1 1266.49 1177.63 1319.25 1176.22 1332.79" stroke="black" stroke-width="7.58013" stroke-miterlimit="10"/>
</g>
<g style="mix-blend-mode:multiply" opacity="0.25">
<path d="M677.143 1670.19C678.659 1678.07 679.669 1685.95 679.973 1693.94C694.83 1693.94 710.192 1693.94 725.656 1693.94C709.687 1685.65 693.516 1677.67 677.143 1670.19Z" fill="#D6B800"/>
</g>
<path d="M191.307 1934.26C191.307 1934.26 102.266 2008.45 81.1425 2063.53C81.1425 2063.53 -24.7773 2091.12 26.0601 2127.1L101.761 2141.96C101.761 2141.96 106.511 2258.49 365.044 2309.33C623.577 2360.17 1187.24 2341.17 1187.24 2341.17C1187.24 2341.17 1543.3 2332.68 1602.63 2283.96C1661.95 2235.25 1656.6 2214.02 1656.6 2214.02C1656.6 2214.02 1816.69 2211.19 1668.32 2139.53C1668.32 2139.53 1626.88 1957.61 1526.83 1942.85C1426.77 1928.1 191.307 1934.36 191.307 1934.36V1934.26Z" fill="#AFE2FB" stroke="black" stroke-width="7.58013" stroke-miterlimit="10"/>
<g style="mix-blend-mode:multiply" opacity="0.51">
<path d="M26.059 2127.12L81.5461 2138.04C111.867 2144 156.842 2129.75 189.184 2130.26C230.521 2130.96 271.757 2135.71 312.386 2142.89C385.762 2155.93 458.329 2176.34 528.47 2200.9C637.725 2239.31 753.651 2258.71 869.576 2257.3C988.433 2255.78 1103.25 2215.15 1222.51 2221.62C1276.68 2224.55 1329.24 2237.79 1383.11 2242.85C1460.22 2250.02 1584.84 2177.15 1650.63 2230.72C1637.39 2219.9 1716.73 2205.75 1719.56 2202.92C1749.88 2174.02 1692.98 2151.28 1668.42 2139.45C1668.42 2139.45 1626.98 1957.53 1526.93 1942.77C1426.87 1927.92 191.407 1934.29 191.407 1934.29C191.407 1934.29 102.366 2008.47 81.2426 2063.55C81.2426 2063.55 -24.6772 2091.14 26.1602 2127.12H26.059Z" fill="#8FCAD9"/>
</g>
<g style="mix-blend-mode:multiply">
<path d="M874.831 2023.72C997.911 2023.72 1097.69 1923.94 1097.69 1800.86C1097.69 1677.78 997.911 1578.01 874.831 1578.01C751.751 1578.01 651.976 1677.78 651.976 1800.86C651.976 1923.94 751.751 2023.72 874.831 2023.72Z" fill="#5AD8C5"/>
</g>
<path d="M848.654 2180.47C848.654 2180.47 1043.41 2166.12 1252.22 2163.89C1356.22 2162.78 1434.24 2131.95 1486.4 2101.43C1554.41 2061.61 1602.12 1993.39 1611.32 1911.42C1616.37 1866.35 1610.81 1813.59 1580.29 1760.02C1498.83 1617.11 1207.04 1714.74 1207.04 1714.74C1207.04 1714.74 1020.17 1786.6 869.575 1881.2C869.575 1881.2 825.105 1917.08 806.205 1910.72C787.305 1904.35 700.083 1902.23 726.664 1996.72C726.664 1996.72 701.599 2052.82 749.102 2097.39C749.102 2097.39 793.167 2203.71 848.856 2180.57L848.654 2180.47Z" fill="#81E9DD" stroke="#0A0A0A" stroke-width="7.58013" stroke-miterlimit="10"/>
<g style="mix-blend-mode:multiply" opacity="0.36">
<path d="M1372.09 1979.34C1336.31 1883.12 1359.15 1774.17 1426.36 1698.16C1430.81 1693.11 1435.66 1688.46 1440.51 1683.81C1331.46 1672.9 1206.94 1714.54 1206.94 1714.54C1206.94 1714.54 1020.07 1786.4 869.475 1881C869.475 1881 825.005 1916.88 806.105 1910.51C787.206 1904.14 699.983 1902.02 726.564 1996.52C726.564 1996.52 701.499 2052.61 749.001 2097.18C749.001 2097.18 793.067 2203.51 848.756 2180.36C848.756 2180.36 1043.51 2166.01 1252.32 2163.79C1347.93 2162.78 1421.61 2136.6 1473.36 2108.71C1429.19 2080.91 1394.32 2038.97 1372.19 1979.34H1372.09Z" fill="#5AD8C5"/>
</g>
<path d="M964.075 1969.63C964.075 1969.63 801.759 1871.09 635.704 1756.17C553.03 1698.97 472.579 1677.34 412.646 1670.16C334.52 1660.76 254.979 1682.9 197.269 1736.36C165.533 1765.77 137.437 1806.61 128.543 1861.99C104.791 2009.75 394.858 2102.74 394.858 2102.74C394.858 2102.74 586.383 2155.6 763.353 2172.07C763.353 2172.07 820.457 2171.26 831.473 2186.32C842.49 2201.38 909.903 2251.71 947.096 2169.24C947.096 2169.24 1001.37 2143.06 991.364 2084.75C991.364 2084.75 1021.99 1984.08 963.975 1969.53L964.075 1969.63Z" fill="#81E9DD" stroke="#0A0A0A" stroke-width="7.58013" stroke-miterlimit="10"/>
<g style="mix-blend-mode:multiply" opacity="0.36">
<path d="M302.178 1722.2C307.939 1770.31 303.188 1820.14 324.413 1866.23C358.776 1940.61 443.37 1979.42 524.528 1990.64C620.139 2003.88 734.953 2008.23 830.665 1994.08C840.469 1992.66 944.467 1960.83 942.648 1959.01C910.407 1927.27 859.469 1904.43 820.861 1879.57C758.502 1839.44 696.648 1798.41 635.703 1756.16C553.029 1698.96 472.579 1677.33 412.645 1670.15C374.947 1665.61 328.152 1666.01 294.092 1682.18C298.135 1695.32 300.561 1708.66 302.178 1722.2Z" fill="#5AD8C5"/>
</g>
<path d="M888.981 2138.81C888.981 2138.81 901.11 2166.81 947.197 2169.34L888.981 2138.81Z" fill="#81E9DD"/>
<path d="M888.981 2138.81C888.981 2138.81 901.11 2166.81 947.197 2169.34" stroke="#0A0A0A" stroke-width="7.58013" stroke-miterlimit="10"/>
<path d="M992.982 2079.22C992.982 2079.22 975.295 2060.11 936.99 2062.84L992.982 2079.22Z" fill="#81E9DD"/>
<path d="M992.982 2079.22C992.982 2079.22 975.295 2060.11 936.99 2062.84" stroke="#0A0A0A" stroke-width="7.58013" stroke-miterlimit="10"/>
<path d="M456.611 1332.79H1223.32C1256.47 1332.79 1281.73 1362.51 1276.48 1395.25L1209.77 1811.66C1207.45 1826.41 1194.71 1837.23 1179.76 1837.23H500.172C485.214 1837.23 472.58 1826.41 470.154 1811.66L403.449 1395.25C398.194 1362.51 423.461 1332.79 456.611 1332.79Z" fill="#BCC7CC" stroke="black" stroke-width="7.58013" stroke-miterlimit="10"/>
<path d="M1210.18 1800.87L1207.25 1818.86C1205.53 1829.47 1196.43 1837.25 1185.72 1837.25H491.48C480.766 1837.25 471.67 1829.47 469.952 1818.86L467.021 1800.87H1210.18Z" fill="#9BA5A8" stroke="black" stroke-width="7.58013" stroke-miterlimit="10"/>
<path d="M900.401 1585.16C893.023 1610.83 869.272 1629.63 841.175 1629.63C807.216 1629.63 779.625 1602.04 779.625 1568.08C779.625 1534.12 807.216 1506.43 841.175 1506.43C841.984 1506.43 842.792 1506.43 843.601 1506.53C841.984 1511.98 841.175 1517.75 841.175 1523.71C841.175 1556.86 867.453 1583.95 900.401 1585.16Z" fill="#D3DCE0"/>
<g clip-path="url(#clip0_6140_1336)">
<path d="M1685.81 1313.56V1538.3H1367.71V1505.9H1315.7L1367.71 1459.01V1313.56H1685.81Z" fill="#AFE2FB" stroke="black" stroke-width="7.57579" stroke-miterlimit="10"/>
</g>
<path d="M1621.28 1380.08L1509.08 1492.28L1487.86 1471.07L1440.23 1423.48L1461.5 1402.22L1509.08 1449.85L1600.06 1358.87L1621.28 1380.08Z" fill="#12F1B8" stroke="#009378" stroke-width="7.3196" stroke-miterlimit="10"/>
<g clip-path="url(#clip1_6140_1336)">
<path d="M1282.94 566.795C1282.54 574.096 1282.44 581.498 1282.24 588.799C1277.53 783.335 1149.21 897.856 1149.21 897.856C1067.4 971.77 957.976 1019.28 841.855 1019.28C812.849 1019.28 780.943 1011.88 749.438 1000.77C676.824 981.171 610.312 943.764 555.902 894.655C555.902 894.655 427.578 780.134 422.877 585.599C422.677 578.297 422.577 570.896 422.177 563.594C420.377 532.089 417.376 415.667 466.185 369.359C466.185 369.359 403.774 275.541 461.784 188.025C487.689 148.918 529.197 122.013 575.705 115.512C617.113 109.711 671.123 118.512 711.631 183.124L745.937 163.821C745.937 163.821 721.032 113.912 780.843 97.1084C780.843 97.1084 741.536 50.3998 779.943 14.8932C818.25 -20.7133 859.358 40.0979 859.358 40.0979L959.176 167.021L993.483 186.325C1069.2 65.7026 1191.72 139.616 1191.72 139.616C1329.14 236.834 1238.93 372.559 1238.93 372.559C1287.74 418.868 1284.74 535.289 1282.94 566.795Z" fill="#81E9DD" stroke="#0A0A0A" stroke-width="7.50138" stroke-miterlimit="10"/>
<g style="mix-blend-mode:multiply" opacity="0.36">
<path d="M1238.93 372.567C1238.93 372.567 1301.34 278.65 1243.23 191.033C1217.63 152.426 1176.72 125.621 1130.81 118.92C1090.2 112.919 1037.09 120.72 996.486 181.832C1005.99 192.534 1015.39 203.336 1024.39 214.438C1097.7 304.654 1146.81 396.871 1154.22 515.793C1168.72 746.936 985.184 938.871 756.842 944.472C692.53 946.073 632.219 934.671 577.009 912.667C627.118 952.874 685.929 983.68 749.341 1000.78C780.846 1011.88 812.752 1019.29 841.758 1019.29C957.879 1019.29 1067.3 971.777 1149.11 897.864C1149.11 897.864 1277.44 783.343 1282.14 588.807C1282.34 581.505 1282.44 574.104 1282.84 566.803C1284.64 535.297 1287.64 418.875 1238.83 372.567H1238.93Z" fill="#68D8C9"/>
</g>
<g style="mix-blend-mode:multiply" opacity="0.36">
<path d="M1027.99 206.527C1027.99 206.527 1095 133.714 1171.22 191.724C1171.22 191.724 1243.13 233.732 1205.92 345.353" fill="#68D8C9"/>
<path d="M1027.99 206.527C1027.99 206.527 1095 133.714 1171.22 191.724C1171.22 191.724 1243.13 233.732 1205.92 345.353" stroke="#0A0A0A" stroke-width="7.50138" stroke-miterlimit="10"/>
</g>
<path d="M780.748 97.1279L839.458 170.341" stroke="#0A0A0A" stroke-width="7.50138" stroke-miterlimit="10"/>
<path d="M745.937 163.817C745.937 163.817 757.239 187.522 817.35 206.525L745.937 163.817Z" fill="#81E9DD"/>
<path d="M745.937 163.817C745.937 163.817 757.239 187.522 817.35 206.525" stroke="#0A0A0A" stroke-width="7.50138" stroke-miterlimit="10"/>
<path d="M545.195 836.846C468.881 683.618 453.378 517.087 496.987 352.657C490.185 334.553 485.884 315.05 484.984 294.846C481.284 212.631 548.696 141.418 626.61 126.615C569.9 114.013 517.79 145.218 517.79 145.218C383.666 240.136 471.682 372.66 471.682 372.66C416.372 425.17 429.274 570.097 429.274 570.097C427.974 768.333 559.298 885.555 559.298 885.555C571.8 896.857 584.903 907.359 598.605 917.261C578.102 893.056 559.998 866.551 545.195 836.846Z" fill="#A8FAEF"/>
<g style="mix-blend-mode:multiply" opacity="0.36">
<path d="M672.426 206.527C672.426 206.527 605.414 133.714 529.2 191.724C529.2 191.724 457.287 233.732 494.494 345.353" fill="#68D8C9"/>
<path d="M672.426 206.527C672.426 206.527 605.414 133.714 529.2 191.724C529.2 191.724 457.287 233.732 494.494 345.353" stroke="#0A0A0A" stroke-width="7.50138" stroke-miterlimit="10"/>
</g>
<path d="M821.252 54.2041C872.461 82.2093 908.368 126.017 943.174 171.026C943.974 170.426 944.775 169.825 945.575 169.225L944.875 168.825L848.857 54.5042C848.857 54.5042 813.65 2.49459 780.844 32.9002C778.144 35.4007 776.144 37.9011 774.243 40.5016C790.646 41.9019 806.749 46.3027 821.152 54.2041H821.252Z" fill="#A8FAEF"/>
</g>
<path d="M807.78 806.229L823.951 871.923C824.355 873.641 826.074 874.854 827.994 874.854H867.714C869.634 874.854 871.352 873.641 871.756 871.923L887.927 806.229C888.433 804.005 886.815 801.883 884.39 801.58L848.409 797.84C848.409 797.84 847.803 797.84 847.5 797.84L811.52 801.58C809.094 801.782 807.376 804.005 807.982 806.229H807.78Z" fill="white" stroke="#9F9F9F" stroke-width="7.58013" stroke-miterlimit="10"/>
<path d="M850.836 802.619L847.096 864.472L843.255 802.619H850.836Z" fill="#9F9F9F"/>
<path d="M761.996 777.221C779.986 809.462 812.429 813 834.462 810.978C839.516 810.473 843.862 808.553 847.096 805.52V683.733C831.531 682.924 816.269 684.137 804.849 685.35C746.229 691.616 732.484 724.362 761.996 777.221Z" fill="#BBF9F0" stroke="#659F97" stroke-width="7.58013" stroke-miterlimit="10"/>
<path d="M932.903 777.221C914.913 809.462 882.47 813 860.437 810.978C855.383 810.473 851.037 808.553 847.803 805.52V683.733C863.368 682.924 878.63 684.137 890.05 685.35C948.67 691.616 962.415 724.362 932.903 777.221Z" fill="#BBF9F0" stroke="#659F97" stroke-width="7.58013" stroke-miterlimit="10"/>
<path d="M797.675 680.623C804.547 695.076 819.607 715.795 847.097 711.753C874.588 715.795 889.647 695.076 896.519 680.623C900.158 673.144 896.216 664.351 887.827 661.522C878.731 658.489 865.087 655.154 847.097 654.447C829.107 655.154 815.463 658.591 806.366 661.522C797.978 664.351 794.036 673.144 797.675 680.623Z" fill="#0A0A0A"/>
<path d="M827.084 683.44C832.163 683.44 836.281 679.594 836.281 674.85C836.281 670.105 832.163 666.259 827.084 666.259C822.004 666.259 817.887 670.105 817.887 674.85C817.887 679.594 822.004 683.44 827.084 683.44Z" fill="white"/>
<path d="M1041.24 364.15C1041.24 364.15 1116.38 364.15 1146.58 432.739" stroke="black" stroke-width="10.2372" stroke-miterlimit="10"/>
<path d="M652.84 364.15C652.84 364.15 577.699 364.15 547.5 432.739" stroke="black" stroke-width="10.2372" stroke-miterlimit="10"/>
<path d="M944.296 587.9C940.15 537.727 1001.69 487.339 1053.97 524.037C1079.25 542.601 1087.13 575.643 1078.27 602.02C1076.89 569.837 1059.33 530.917 1020.63 526.115C981.693 522.746 954.296 556.936 944.296 587.9Z" fill="#0A0A0A"/>
<path d="M752.74 587.903C756.886 537.73 695.344 487.342 643.071 524.04C617.787 542.604 609.902 575.646 618.763 602.023C620.145 569.841 637.705 530.921 676.402 526.118C715.343 522.75 742.74 556.939 752.74 587.903Z" fill="#0A0A0A"/>
<defs>
<clipPath id="clip0_6140_1336">
<rect width="379.704" height="230.068" fill="white" transform="translate(1308.74 1310.87)"/>
</clipPath>
<clipPath id="clip1_6140_1336">
<rect width="869.86" height="1023.09" fill="white" transform="translate(417.577)"/>
</clipPath>
</defs>
</svg>
